<svg width="33" height="20" viewBox="0 0 33 20" fill="none" xmlns="http://www.w3.org/2000/svg">
<path fill-rule="evenodd" clip-rule="evenodd" d="M27.9192 12.4812C28.9689 13.5267 30.0778 14.5107 31.02 15.6622C31.4355 16.1733 31.8293 16.7004 32.1313 17.2939C32.5577 18.1375 32.1711 19.0661 31.4295 19.1166L26.8164 19.1141C25.6266 19.2151 24.6771 18.7262 23.8799 17.8974C23.2409 17.2336 22.649 16.5279 22.0354 15.8432C21.7841 15.5624 21.5208 15.2989 21.2055 15.0908C20.5762 14.6733 20.029 14.8014 19.669 15.4713C19.303 16.1523 19.2197 16.906 19.1835 17.6659C19.1339 18.7718 18.8054 19.0636 17.7158 19.1141C15.3833 19.2262 13.1704 18.8666 11.1145 17.6671C9.30257 16.6105 7.89654 15.1179 6.67411 13.4282C4.29207 10.1376 2.4681 6.52307 0.828934 2.80634C0.459307 1.96891 0.729884 1.5194 1.63583 1.5034C3.14091 1.47384 4.64479 1.4763 6.15108 1.50093C6.7635 1.51078 7.16816 1.86793 7.40491 2.45782C8.21785 4.49845 9.21439 6.43933 10.4646 8.23981C10.798 8.71887 11.1374 9.19793 11.6218 9.53537C12.1557 9.90852 12.5628 9.78537 12.8152 9.177C12.9747 8.79153 13.0447 8.37774 13.081 7.96518C13.1994 6.54524 13.2151 5.12776 13.0061 3.71397C12.878 2.83097 12.39 2.25955 11.5264 2.09329C11.0855 2.00832 11.1507 1.84083 11.3645 1.58344C11.7353 1.14133 12.0844 0.866699 12.779 0.866699H17.9924C18.8126 1.03049 18.995 1.40734 19.1074 2.24847L19.1122 8.15237C19.1037 8.47873 19.2716 9.44547 19.8478 9.66222C20.308 9.81493 20.6124 9.43808 20.889 9.14128C22.1368 7.79031 23.0271 6.19426 23.8231 4.54156C24.1758 3.81373 24.4802 3.06004 24.7738 2.30635C24.9924 1.746 25.3342 1.47138 25.9527 1.48246L30.9704 1.48739C31.119 1.48739 31.2688 1.48985 31.4125 1.51448C32.2593 1.66226 32.4912 2.03295 32.2291 2.87408C31.8184 4.1955 31.0176 5.29525 30.2348 6.40115C29.3989 7.58218 28.5026 8.72134 27.674 9.90852C26.9106 10.9935 26.9722 11.5403 27.9192 12.4812Z" fill="#FFFFFE"/>
</svg>
