<svg width="24" height="23" viewBox="0 0 24 23" fill="none" xmlns="http://www.w3.org/2000/svg">
<path fill-rule="evenodd" clip-rule="evenodd" d="M22.0903 4.23725C21.8324 3.92782 21.5096 3.67895 21.1448 3.50833C20.7799 3.33771 20.382 3.24951 19.9792 3.25H5.15852L5.12002 2.92825C5.04123 2.25947 4.71979 1.64284 4.21664 1.19527C3.71348 0.747705 3.06359 0.500313 2.39019 0.5H2.18669C1.94357 0.5 1.71041 0.596577 1.5385 0.768485C1.3666 0.940394 1.27002 1.17355 1.27002 1.41667C1.27002 1.65978 1.3666 1.89294 1.5385 2.06485C1.71041 2.23676 1.94357 2.33333 2.18669 2.33333H2.39019C2.61471 2.33336 2.83141 2.41579 2.99919 2.56499C3.16698 2.71419 3.27417 2.91977 3.30044 3.14275L4.56177 13.8678C4.69272 14.9831 5.22862 16.0116 6.06777 16.758C6.90691 17.5044 7.99089 17.9167 9.11394 17.9167H18.6867C18.9298 17.9167 19.163 17.8201 19.3349 17.6482C19.5068 17.4763 19.6034 17.2431 19.6034 17C19.6034 16.7569 19.5068 16.5237 19.3349 16.3518C19.163 16.1799 18.9298 16.0833 18.6867 16.0833H9.11394C8.54657 16.0817 7.99359 15.9047 7.53079 15.5765C7.068 15.2483 6.71806 14.7849 6.52894 14.25H17.4556C18.5302 14.2501 19.5707 13.8725 20.3952 13.1834C21.2197 12.4943 21.7759 11.5373 21.9665 10.4798L22.6861 6.48858C22.7579 6.09259 22.7418 5.68565 22.6388 5.29658C22.5359 4.90752 22.3486 4.54587 22.0903 4.23725ZM20.8867 6.16317L20.1662 10.1543C20.0517 10.7896 19.7174 11.3643 19.2219 11.7779C18.7263 12.1915 18.1011 12.4176 17.4556 12.4167H6.23744L5.37485 5.08333H19.9792C20.1138 5.08253 20.247 5.1114 20.3693 5.1679C20.4915 5.2244 20.5998 5.30713 20.6864 5.41022C20.7731 5.51331 20.8359 5.63422 20.8705 5.76436C20.9051 5.8945 20.9107 6.03066 20.8867 6.16317ZM7.68685 22.5C8.69937 22.5 9.52018 21.6792 9.52018 20.6666C9.52018 19.6541 8.69937 18.8333 7.68685 18.8333C6.67433 18.8333 5.85352 19.6541 5.85352 20.6666C5.85352 21.6792 6.67433 22.5 7.68685 22.5ZM18.6867 20.6666C18.6867 21.6792 17.8659 22.5 16.8534 22.5C15.8408 22.5 15.02 21.6792 15.02 20.6666C15.02 19.6541 15.8408 18.8333 16.8534 18.8333C17.8659 18.8333 18.6867 19.6541 18.6867 20.6666Z" fill="white"/>
<path d="M21.1448 3.50833L21.3566 3.05541L21.3566 3.05541L21.1448 3.50833ZM22.0903 4.23725L21.7061 4.55733L21.7068 4.55817L22.0903 4.23725ZM19.9792 3.25V3.75L19.9798 3.75L19.9792 3.25ZM5.15852 3.25L4.66206 3.30941L4.71478 3.75H5.15852V3.25ZM5.12002 2.92825L4.62345 2.98675L4.62356 2.98766L5.12002 2.92825ZM4.21664 1.19527L4.54895 0.821684V0.821684L4.21664 1.19527ZM2.39019 0.5L2.39042 0H2.39019V0.5ZM1.5385 0.768485L1.89206 1.12204H1.89206L1.5385 0.768485ZM1.5385 2.06485L1.89206 1.71129L1.5385 2.06485ZM2.39019 2.33333L2.39025 1.83333H2.39019V2.33333ZM2.99919 2.56499L2.66694 2.93863H2.66694L2.99919 2.56499ZM3.30044 3.14275L3.79701 3.08435L3.797 3.08425L3.30044 3.14275ZM4.56177 13.8678L5.05836 13.8095L5.05835 13.8094L4.56177 13.8678ZM6.06777 16.758L5.73547 17.1316L6.06777 16.758ZM9.11394 17.9167V17.4167H9.11392L9.11394 17.9167ZM19.3349 17.6482L19.6884 18.0017L19.6884 18.0017L19.3349 17.6482ZM19.3349 16.3518L19.6884 15.9983L19.6884 15.9983L19.3349 16.3518ZM9.11394 16.0833L9.11253 16.5833H9.11394V16.0833ZM7.53079 15.5765L7.82004 15.1686H7.82004L7.53079 15.5765ZM6.52894 14.25V13.75H5.82183L6.05753 14.4167L6.52894 14.25ZM17.4556 14.25L17.4556 13.75H17.4556V14.25ZM21.9665 10.4798L21.4745 10.391L21.4744 10.3911L21.9665 10.4798ZM22.6861 6.48858L22.1941 6.39935L22.194 6.39987L22.6861 6.48858ZM22.6388 5.29658L23.1222 5.16866L22.6388 5.29658ZM20.1662 10.1543L19.6741 10.0655L19.6741 10.0657L20.1662 10.1543ZM20.8867 6.16317L20.3947 6.07416L20.3946 6.07434L20.8867 6.16317ZM19.2219 11.7779L19.5423 12.1618H19.5423L19.2219 11.7779ZM17.4556 12.4167L17.4564 11.9167H17.4556V12.4167ZM6.23744 12.4167L5.74086 12.4751L5.7928 12.9167H6.23744V12.4167ZM5.37485 5.08333V4.58333H4.81259L4.87828 5.14174L5.37485 5.08333ZM19.9792 5.08333V5.58334L19.9822 5.58332L19.9792 5.08333ZM20.3693 5.1679L20.1595 5.62176L20.1595 5.62176L20.3693 5.1679ZM20.6864 5.41022L21.0692 5.08854L21.0692 5.08854L20.6864 5.41022ZM20.8705 5.76436L20.3873 5.89288L20.3873 5.89288L20.8705 5.76436ZM20.933 3.96125C21.2313 4.10078 21.4953 4.30429 21.7061 4.55733L22.4744 3.91717C22.1696 3.55135 21.7879 3.25713 21.3566 3.05541L20.933 3.96125ZM19.9798 3.75C20.3092 3.7496 20.6346 3.82172 20.933 3.96125L21.3566 3.05541C20.9252 2.85369 20.4548 2.74942 19.9786 2.75L19.9798 3.75ZM5.15852 3.75H19.9792V2.75H5.15852V3.75ZM4.62356 2.98766L4.66206 3.30941L5.65498 3.19059L5.61648 2.86884L4.62356 2.98766ZM3.88432 1.56886C4.29599 1.93505 4.55899 2.43956 4.62345 2.98675L5.61659 2.86975C5.52347 2.07937 5.14359 1.35063 4.54895 0.821684L3.88432 1.56886ZM2.38995 1C2.94092 1.00026 3.47265 1.20267 3.88432 1.56886L4.54895 0.821684C3.95431 0.292742 3.18627 0.000370324 2.39042 5.96046e-08L2.38995 1ZM2.18669 1H2.39019V0H2.18669V1ZM1.89206 1.12204C1.9702 1.0439 2.07618 1 2.18669 1V0C1.81096 0 1.45063 0.149256 1.18495 0.414932L1.89206 1.12204ZM1.77002 1.41667C1.77002 1.30616 1.81392 1.20018 1.89206 1.12204L1.18495 0.414932C0.919275 0.680609 0.77002 1.04094 0.77002 1.41667H1.77002ZM1.89206 1.71129C1.81392 1.63315 1.77002 1.52717 1.77002 1.41667H0.77002C0.77002 1.79239 0.919275 2.15272 1.18495 2.4184L1.89206 1.71129ZM2.18669 1.83333C2.07618 1.83333 1.9702 1.78943 1.89206 1.71129L1.18495 2.4184C1.45063 2.68408 1.81096 2.83333 2.18669 2.83333V1.83333ZM2.39019 1.83333H2.18669V2.83333H2.39019V1.83333ZM3.33145 2.19135C3.07215 1.96077 2.73724 1.83338 2.39025 1.83333L2.39012 2.83333C2.49218 2.83335 2.59068 2.87082 2.66694 2.93863L3.33145 2.19135ZM3.797 3.08425C3.7564 2.73964 3.59075 2.42192 3.33145 2.19135L2.66694 2.93863C2.74321 3.00645 2.79193 3.0999 2.80387 3.20125L3.797 3.08425ZM5.05835 13.8094L3.79701 3.08435L2.80386 3.20115L4.06519 13.9262L5.05835 13.8094ZM6.40007 16.3844C5.65247 15.7195 5.17502 14.8032 5.05836 13.8095L4.06518 13.9261C4.21041 15.1631 4.80478 16.3038 5.73547 17.1316L6.40007 16.3844ZM9.11392 17.4167C8.11339 17.4167 7.14767 17.0494 6.40007 16.3844L5.73547 17.1316C6.66616 17.9594 7.86838 18.4167 9.11395 18.4167L9.11392 17.4167ZM18.6867 17.4167H9.11394V18.4167H18.6867V17.4167ZM18.9813 17.2946C18.9032 17.3728 18.7972 17.4167 18.6867 17.4167V18.4167C19.0624 18.4167 19.4227 18.2674 19.6884 18.0017L18.9813 17.2946ZM19.1034 17C19.1034 17.1105 19.0595 17.2165 18.9813 17.2946L19.6884 18.0017C19.9541 17.7361 20.1034 17.3757 20.1034 17H19.1034ZM18.9813 16.7054C19.0595 16.7835 19.1034 16.8895 19.1034 17H20.1034C20.1034 16.6243 19.9541 16.2639 19.6884 15.9983L18.9813 16.7054ZM18.6867 16.5833C18.7972 16.5833 18.9032 16.6272 18.9813 16.7054L19.6884 15.9983C19.4227 15.7326 19.0624 15.5833 18.6867 15.5833V16.5833ZM9.11394 16.5833H18.6867V15.5833H9.11394V16.5833ZM7.24154 15.9843C7.78848 16.3722 8.44201 16.5814 9.11253 16.5833L9.11534 15.5833C8.65113 15.582 8.19869 15.4372 7.82004 15.1686L7.24154 15.9843ZM6.05753 14.4167C6.28104 15.0488 6.69461 15.5964 7.24154 15.9843L7.82004 15.1686C7.44139 14.9001 7.15508 14.521 7.00034 14.0833L6.05753 14.4167ZM17.4556 13.75H6.52894V14.75H17.4556V13.75ZM20.0745 12.7998C19.34 13.4137 18.413 13.7501 17.4556 13.75L17.4556 14.75C18.6474 14.7501 19.8014 14.3314 20.7158 13.567L20.0745 12.7998ZM21.4744 10.3911C21.3046 11.3332 20.8091 12.1858 20.0745 12.7998L20.7158 13.567C21.6303 12.8027 22.2472 11.7414 22.4586 10.5685L21.4744 10.3911ZM22.194 6.39987L21.4745 10.391L22.4586 10.5685L23.1782 6.5773L22.194 6.39987ZM22.1555 5.42451C22.2397 5.74269 22.2529 6.0755 22.1941 6.39935L23.1781 6.57782C23.263 6.10968 23.2439 5.6286 23.1222 5.16866L22.1555 5.42451ZM21.7068 4.55817C21.9181 4.81056 22.0713 5.10633 22.1555 5.42451L23.1222 5.16866C23.0005 4.70872 22.7791 4.28118 22.4737 3.91633L21.7068 4.55817ZM20.6582 10.2432L21.3787 6.25199L20.3946 6.07434L19.6741 10.0655L20.6582 10.2432ZM19.5423 12.1618C20.1279 11.673 20.523 10.9938 20.6583 10.243L19.6741 10.0657C19.5805 10.5854 19.307 11.0557 18.9015 11.3941L19.5423 12.1618ZM17.4548 12.9167C18.2177 12.9178 18.9566 12.6506 19.5423 12.1618L18.9015 11.3941C18.4961 11.7325 17.9845 11.9175 17.4564 11.9167L17.4548 12.9167ZM6.23744 12.9167H17.4556V11.9167H6.23744V12.9167ZM4.87828 5.14174L5.74086 12.4751L6.73401 12.3583L5.87143 5.02492L4.87828 5.14174ZM19.9792 4.58333H5.37485V5.58333H19.9792V4.58333ZM20.579 4.71404C20.3901 4.62672 20.1843 4.5821 19.9762 4.58334L19.9822 5.58332C20.0434 5.58296 20.1039 5.59608 20.1595 5.62176L20.579 4.71404ZM21.0692 5.08854C20.9353 4.92922 20.7679 4.80135 20.579 4.71404L20.1595 5.62176C20.215 5.64745 20.2643 5.68505 20.3036 5.73191L21.0692 5.08854ZM21.3537 5.63584C21.3002 5.43472 21.2031 5.24786 21.0692 5.08854L20.3036 5.73191C20.343 5.77877 20.3716 5.83373 20.3873 5.89288L21.3537 5.63584ZM21.3787 6.25217C21.4157 6.04739 21.4072 5.83696 21.3537 5.63583L20.3873 5.89288C20.4031 5.95203 20.4056 6.01392 20.3947 6.07416L21.3787 6.25217ZM9.02018 20.6666C9.02018 21.403 8.42323 22 7.68685 22V23C8.97551 23 10.0202 21.9553 10.0202 20.6666H9.02018ZM7.68685 19.3333C8.42323 19.3333 9.02018 19.9303 9.02018 20.6666H10.0202C10.0202 19.378 8.97551 18.3333 7.68685 18.3333V19.3333ZM6.35352 20.6666C6.35352 19.9303 6.95047 19.3333 7.68685 19.3333V18.3333C6.39818 18.3333 5.35352 19.378 5.35352 20.6666H6.35352ZM7.68685 22C6.95047 22 6.35352 21.403 6.35352 20.6666H5.35352C5.35352 21.9553 6.39818 23 7.68685 23V22ZM16.8534 23C18.142 23 19.1867 21.9553 19.1867 20.6666H18.1867C18.1867 21.403 17.5897 22 16.8534 22V23ZM14.52 20.6666C14.52 21.9553 15.5647 23 16.8534 23V22C16.117 22 15.52 21.403 15.52 20.6666H14.52ZM16.8534 18.3333C15.5647 18.3333 14.52 19.378 14.52 20.6666H15.52C15.52 19.9303 16.117 19.3333 16.8534 19.3333V18.3333ZM19.1867 20.6666C19.1867 19.378 18.142 18.3333 16.8534 18.3333V19.3333C17.5897 19.3333 18.1867 19.9303 18.1867 20.6666H19.1867Z" fill="white"/>
</svg>
