<svg width="22" height="22" viewBox="0 0 22 22" fill="none" xmlns="http://www.w3.org/2000/svg">
<g clip-path="url(#clip0_1795_25466)">
<path d="M21.7295 20.4352L16.2579 14.9637C17.749 13.14 18.4821 10.8131 18.3056 8.4641C18.1291 6.11511 17.0565 3.92382 15.3097 2.34348C13.5629 0.763133 11.2755 -0.0853503 8.9206 -0.0264711C6.56572 0.0324081 4.32357 0.994145 2.6579 2.65981C0.992238 4.32548 0.0305007 6.56763 -0.0283785 8.9225C-0.0872576 11.2774 0.761226 13.5648 2.34157 15.3116C3.92191 17.0584 6.1132 18.131 8.46219 18.3075C10.8112 18.484 13.1381 17.7509 14.9618 16.2598L20.4333 21.7314C20.6062 21.8984 20.8378 21.9908 21.0781 21.9887C21.3185 21.9866 21.5484 21.8902 21.7183 21.7202C21.8883 21.5503 21.9847 21.3204 21.9868 21.08C21.9889 20.8397 21.8965 20.6081 21.7295 20.4352ZM9.16476 16.5C7.71436 16.5 6.29654 16.0699 5.09058 15.2641C3.88462 14.4583 2.94468 13.313 2.38964 11.973C1.8346 10.633 1.68937 9.15853 1.97233 7.736C2.25529 6.31348 2.95372 5.0068 3.97931 3.98122C5.00489 2.95563 6.31157 2.2572 7.7341 1.97424C9.15662 1.69128 10.6311 1.83651 11.9711 2.39155C13.3111 2.94659 14.4564 3.88652 15.2622 5.09248C16.068 6.29844 16.4981 7.71627 16.4981 9.16667C16.4959 11.1109 15.7226 12.9749 14.3478 14.3497C12.973 15.7245 11.109 16.4978 9.16476 16.5Z" fill="white"/>
</g>
<defs>
<clipPath id="clip0_1795_25466">
<rect width="22" height="22" fill="white"/>
</clipPath>
</defs>
</svg>
