<svg width="22" height="23" viewBox="0 0 22 23" fill="none" xmlns="http://www.w3.org/2000/svg">
<g clip-path="url(#clip0_1835_25073)">
<path d="M21.7314 20.9352L16.2598 15.4637C17.7509 13.64 18.484 11.3131 18.3075 8.96408C18.131 6.6151 17.0584 4.4238 15.3116 2.84346C13.5648 1.26312 11.2774 0.414634 8.9225 0.473514C6.56763 0.532393 4.32548 1.49413 2.65981 3.1598C0.994145 4.82546 0.0324081 7.06762 -0.0264711 9.42249C-0.0853503 11.7774 0.763133 14.0648 2.34348 15.8116C3.92382 17.5584 6.11511 18.631 8.4641 18.8075C10.8131 18.984 13.14 18.2509 14.9637 16.7598L20.4352 22.2314C20.6081 22.3984 20.8397 22.4908 21.08 22.4887C21.3204 22.4866 21.5503 22.3902 21.7202 22.2202C21.8902 22.0503 21.9866 21.8204 21.9887 21.58C21.9908 21.3397 21.8984 21.1081 21.7314 20.9352ZM9.16667 17C7.71627 17 6.29844 16.5699 5.09248 15.7641C3.88652 14.9583 2.94659 13.813 2.39155 12.473C1.83651 11.133 1.69128 9.65851 1.97424 8.23599C2.2572 6.81346 2.95563 5.50678 3.98122 4.4812C5.0068 3.45562 6.31348 2.75718 7.736 2.47422C9.15853 2.19127 10.633 2.33649 11.973 2.89153C13.313 3.44658 14.4583 4.38651 15.2641 5.59247C16.0699 6.79843 16.5 8.21625 16.5 9.66665C16.4978 11.6109 15.7245 13.4749 14.3497 14.8497C12.9749 16.2245 11.1109 16.9978 9.16667 17Z" fill="#06111D"/>
</g>
<defs>
<clipPath id="clip0_1835_25073">
<rect width="22" height="22" fill="white" transform="translate(0 0.5)"/>
</clipPath>
</defs>
</svg>
