<svg width="54" height="54" viewBox="0 0 54 54" fill="none" xmlns="http://www.w3.org/2000/svg">
<circle cx="27" cy="27" r="27" fill="#E48C3A"/>
<path fill-rule="evenodd" clip-rule="evenodd" d="M28.2134 2L28.2258 2.69055H28.7024L28.719 3.76827L28.2245 3.77839L28.2342 4.27969L28.4032 4.52239C28.4032 4.52239 28.2729 7.74256 28.2729 7.74689C28.3083 7.75304 28.3443 7.75304 28.3796 7.74689H28.3921C28.5389 7.13435 28.6997 4.66397 28.6997 4.65819C28.8974 4.66449 29.0933 4.7 29.2815 4.76365C29.2368 4.99458 29.1745 5.27833 29.1106 5.56933L29.1106 5.56935L29.1106 5.56938L29.1105 5.56939C28.9565 6.27053 28.7932 7.01377 28.8451 7.1618C28.8631 7.21237 29.0211 7.24126 29.0211 7.23548C29.2649 6.58827 29.5078 5.94154 29.7498 5.29529C29.7701 5.24214 29.79 5.18584 29.8105 5.12814L29.8105 5.12807L29.8105 5.12802L29.8105 5.12798L29.8105 5.12795L29.8105 5.12791L29.8106 5.12787L29.8106 5.12784L29.8106 5.1278L29.8106 5.12777L29.8106 5.12775L29.8106 5.12774C29.8851 4.91738 29.9662 4.68845 30.0934 4.52528C30.1931 4.4393 30.3202 4.39548 30.4494 4.40248C30.6753 4.36721 30.9061 4.40556 31.1103 4.51228L31.3015 4.64663L31.5079 4.62641C31.5957 4.61268 31.6854 4.6197 31.7703 4.64695C31.8552 4.67421 31.9331 4.721 31.9983 4.78388C32.0198 4.8063 32.0378 4.83411 32.0557 4.86197C32.0852 4.9077 32.1148 4.95357 32.1604 4.97602C32.2471 5.01765 32.3205 5.04054 32.3877 5.06147C32.5256 5.10446 32.6371 5.13921 32.7825 5.31118L32.9778 5.63334C33.0337 5.67708 33.0897 5.68974 33.1456 5.70241C33.2282 5.72112 33.3108 5.73982 33.3934 5.85871C33.432 5.91281 33.4432 5.98355 33.4543 6.05296C33.465 6.12073 33.4756 6.18724 33.5112 6.23577L33.7342 6.38024C33.8166 6.44534 33.8846 6.5281 33.9337 6.62294C33.999 6.7345 34.0041 6.85744 34.0096 6.98676C34.0128 7.06344 34.0161 7.14236 34.0321 7.22248C34.0457 7.29024 34.0847 7.35006 34.1248 7.41163C34.1701 7.48131 34.217 7.55323 34.2302 7.64143C34.2486 7.78395 34.2368 7.92893 34.1956 8.06616L34.1677 8.12875L34.1677 8.12878L34.1677 8.1288L34.1677 8.12882L34.1677 8.12885L34.1677 8.12887C34.1447 8.1803 34.1216 8.23194 34.1 8.28431C34.0896 8.36573 34.1003 8.45183 34.1112 8.53973C34.1221 8.62806 34.1333 8.71822 34.1235 8.80728C34.1078 8.94699 34.0439 9.04168 33.9783 9.13878C33.9402 9.1953 33.9015 9.25263 33.8714 9.32014C33.8384 9.42055 33.8068 9.52096 33.7751 9.62137L33.7751 9.6214L33.7751 9.62144L33.7751 9.62147L33.7751 9.6215L33.7751 9.62154L33.7751 9.62157L33.7751 9.6216L33.775 9.62163L33.775 9.62167L33.775 9.6217L33.775 9.62173L33.775 9.62177L33.775 9.6218L33.775 9.62183L33.775 9.62186L33.7749 9.6219L33.7749 9.62193L33.7749 9.62196L33.7749 9.622L33.7749 9.62203L33.7749 9.62206L33.7749 9.62209L33.7749 9.62213L33.7749 9.62216L33.7748 9.62219L33.7748 9.62223L33.7748 9.62226L33.7748 9.62229L33.7748 9.62232L33.7748 9.62236L33.7748 9.62239L33.7748 9.62242L33.7748 9.62246L33.7747 9.62249L33.7747 9.62252L33.7747 9.62256L33.7747 9.62259L33.7747 9.62262L33.7747 9.62265L33.7744 9.62352C33.6859 9.80394 33.536 9.86859 33.3789 9.93637C33.3196 9.96194 33.2593 9.98796 33.2009 10.0208C32.9944 10.1497 32.7807 10.2655 32.5608 10.3675C32.4709 10.4034 32.3989 10.4303 32.2906 10.4707C32.2203 10.4969 32.1347 10.5289 32.0191 10.5727C31.97 10.6741 31.9739 11.3741 31.9769 11.9167C31.9787 12.2475 31.9802 12.5198 31.9692 12.562C31.9387 12.7064 30.4744 12.8235 30.3386 12.8047C28.0416 11.9494 25.9427 12.6385 25.092 12.9491C24.8427 12.9665 23.6526 12.7252 23.6637 12.536V10.5842C23.1282 10.3793 22.8635 10.2623 22.4363 10.0735L22.4348 10.0728C22.0067 9.88356 21.5246 9.08321 21.4803 8.83184C21.4647 8.7428 21.4776 8.65225 21.4903 8.56288C21.5026 8.47681 21.5147 8.39182 21.5011 8.31031C21.4893 8.23943 21.4644 8.17425 21.4391 8.10839C21.396 7.99572 21.3521 7.88106 21.3722 7.73245C21.388 7.61686 21.4384 7.53808 21.4863 7.46303C21.5264 7.40019 21.5649 7.33996 21.58 7.26293C21.5961 7.18058 21.6005 7.1009 21.6048 7.02396C21.6123 6.88897 21.6193 6.76239 21.6881 6.64461C21.7467 6.54438 21.8358 6.48575 21.919 6.43098C21.9893 6.3847 22.0554 6.34118 22.0954 6.27766C22.1355 6.21387 22.1481 6.14487 22.1606 6.07686C22.1751 5.99704 22.1894 5.91858 22.2478 5.85149C22.3049 5.78585 22.3832 5.76578 22.4583 5.74653C22.5254 5.72935 22.5899 5.71283 22.6343 5.66513L22.7562 5.43976C22.8235 5.34011 22.9075 5.25397 23.0042 5.18549C23.0737 5.13623 23.1564 5.11458 23.238 5.09321C23.3192 5.07197 23.3993 5.051 23.4642 5.00347L23.5681 4.859C23.6562 4.75398 23.7777 4.68573 23.9103 4.66686C23.9902 4.65436 24.0664 4.67501 24.1392 4.69474C24.1926 4.70922 24.2442 4.7232 24.294 4.7232V4.70586C24.4069 4.61201 24.5319 4.53517 24.6653 4.47761C24.8648 4.41838 25.667 4.53395 25.7515 4.70298C25.8812 4.9567 26.1858 5.88394 26.4096 6.56539L26.4096 6.56541L26.4096 6.56542L26.4096 6.56549L26.4096 6.56555L26.4096 6.56562L26.4097 6.56564L26.4097 6.56573C26.5516 6.99771 26.661 7.33083 26.6728 7.33083C26.6849 7.32392 26.6983 7.31884 26.7116 7.31379L26.7116 7.31378C26.7457 7.30088 26.7792 7.28816 26.7892 7.24559C26.8238 7.11268 26.6021 6.03352 26.3458 4.78966C26.5222 4.72672 26.7041 4.6822 26.8889 4.65675C26.9028 4.83011 27.1369 7.36117 27.1937 7.744C27.2059 7.744 27.2313 7.73254 27.2685 7.71576C27.2904 7.70589 27.3164 7.69418 27.3461 7.68188C27.3295 7.07946 27.2076 4.51661 27.2076 4.51661L27.3849 4.2768L27.3697 3.76539H26.9069L26.8903 2.69344H27.3794L27.3683 2H28.2134ZM27.9816 2.89857L28.357 2.90868L28.3612 3.42877L27.9705 3.43165L27.9857 4.07164L27.6311 4.06731L27.6255 3.43165L27.2584 3.43021L27.2335 2.92458L27.6311 2.91446L27.6103 2.33082L27.9857 2.32648L27.9816 2.89857ZM31.5512 5.66377C31.759 5.39217 31.5748 5.07579 31.2547 5.06567V5.07579C31.2135 5.08414 31.1744 5.10128 31.1398 5.12614C31.1053 5.151 31.076 5.18304 31.0539 5.22025L30.961 5.45862C30.7735 5.7953 30.6193 6.15332 30.4665 6.50813L30.4664 6.50814L30.4664 6.50816C30.4127 6.63292 30.3591 6.75728 30.3044 6.88018C30.2803 6.93409 30.2487 6.98627 30.2168 7.03899L30.2167 7.03904L30.2167 7.0391L30.2167 7.03911C30.1477 7.15308 30.0771 7.26962 30.0771 7.41182C30.0771 7.51583 30.206 7.64007 30.2891 7.67186L30.3986 7.69353C30.4487 7.69443 30.4983 7.68315 30.5435 7.66058C30.5887 7.63801 30.6283 7.60478 30.659 7.56351C30.7658 7.42812 30.7145 7.30517 30.6637 7.18333C30.6229 7.08545 30.5824 6.98829 30.6244 6.88596L30.6507 6.84117L30.7768 6.79205C30.8884 6.75397 30.981 6.67139 31.0345 6.56235C31.077 6.47521 31.068 6.34013 31.0597 6.21404C31.0518 6.09345 31.0444 5.98107 31.083 5.9267C31.1127 5.88529 31.189 5.8684 31.2573 5.85328C31.2938 5.84518 31.3281 5.83759 31.3517 5.82701L31.5512 5.66377ZM24.2208 4.92986C24.3203 4.92363 24.4187 4.95491 24.4979 5.01798C24.5752 5.1121 24.6332 5.22175 24.6683 5.34014C24.6924 5.38928 24.7291 5.45005 24.7702 5.51815C24.9344 5.79039 25.1693 6.17981 24.9565 6.41209C24.9011 6.47132 24.7805 6.45976 24.6988 6.45109C24.6444 6.44232 24.5923 6.42238 24.5454 6.39243C24.4985 6.36248 24.4577 6.32311 24.4255 6.27662C24.3933 6.23012 24.3702 6.17742 24.3577 6.12156C24.3451 6.06571 24.3434 6.00781 24.3524 5.95124C24.3703 5.90845 24.389 5.86651 24.4079 5.82413L24.4259 5.78365H24.4397V5.76921C24.2937 5.74843 24.1578 5.6796 24.0518 5.57273C23.923 5.40804 23.9465 4.9443 24.225 4.9443L24.2208 4.92986ZM23.7373 5.49706C23.6399 5.39784 23.5114 5.33853 23.3754 5.33L23.3741 5.34445C23.3319 5.35214 23.2917 5.36897 23.2561 5.39385C23.2206 5.41874 23.1904 5.45112 23.1676 5.48892C23.0291 5.69117 23.1288 5.96277 23.3062 6.10724C23.3397 6.13407 23.3765 6.15148 23.413 6.16879C23.4669 6.19435 23.5204 6.21969 23.5625 6.27482C23.5348 6.27482 23.5154 6.38028 23.5154 6.41062C23.4766 6.70533 23.7301 6.79201 23.9504 6.82813V6.85846L23.8659 6.94948C23.604 7.35976 24.3217 7.66459 24.5309 7.48978C24.5559 7.45889 24.5733 7.42205 24.5816 7.3825C24.5898 7.34296 24.5885 7.30191 24.578 7.26297C24.4662 7.0482 24.3535 6.83294 24.2399 6.6172L24.1745 6.45395L24.1745 6.45388C24.1308 6.34508 24.0871 6.23627 24.0446 6.12746L23.9061 5.87031C23.8946 5.72879 23.8347 5.59629 23.7373 5.49706ZM31.9938 5.52209C32.2584 5.53076 32.4981 5.81103 32.2944 6.05229C32.2098 6.15545 32.116 6.16526 32.0238 6.17491C31.9547 6.18216 31.8864 6.18931 31.8234 6.23576L31.8054 6.2531C31.7817 6.28579 31.7901 6.36746 31.8001 6.46427C31.8135 6.59421 31.8297 6.75142 31.7749 6.85408C31.7378 6.93168 31.6775 6.99457 31.6031 7.03322C31.5811 7.04391 31.5451 7.04867 31.507 7.05372C31.4422 7.0623 31.371 7.07173 31.351 7.11268C31.3218 7.16877 31.3607 7.24123 31.4051 7.32391C31.483 7.46905 31.5778 7.64569 31.351 7.82056C31.2762 7.86907 31.186 7.88466 31.1002 7.8639L31.0586 7.8509C30.9919 7.81881 30.9373 7.76448 30.9035 7.69648C30.8696 7.62848 30.8584 7.55066 30.8716 7.47529C30.9045 7.38114 30.9512 7.29291 31.0101 7.2138C31.2041 6.79774 31.4258 6.39901 31.6585 5.99884L31.7085 5.88926C31.7417 5.81642 31.7749 5.74357 31.8082 5.66945C31.83 5.63493 31.8584 5.60537 31.8915 5.58254C31.9245 5.5597 31.9617 5.54406 32.0007 5.53654L31.9938 5.52209ZM22.8122 6.01818C22.7624 5.9988 22.7093 5.99026 22.6562 5.99308L22.6576 6.00753C22.4456 6.00753 22.3694 6.33258 22.4637 6.48571C22.5025 6.53632 22.5505 6.57845 22.6049 6.60968C22.6593 6.64092 22.7192 6.66065 22.7809 6.66774V6.69519C22.7532 6.69519 22.7269 6.77465 22.72 6.79921C22.6285 7.14015 22.8931 7.21527 23.1536 7.23261V7.24705H23.1383C23.1383 7.27307 23.1227 7.30155 23.1058 7.33221C23.0862 7.36795 23.0649 7.40665 23.0649 7.44786C23.0511 7.74546 23.3351 7.83214 23.5512 7.7368C23.5512 7.72235 23.5637 7.72235 23.5789 7.72235V7.7368H23.5928V7.76569L23.536 7.82203C23.3448 8.09074 23.6648 8.4808 23.9419 8.28288C23.9962 8.2351 24.0354 8.17136 24.0545 8.09997C24.0735 8.02858 24.0714 7.95286 24.0486 7.88271C24.0288 7.82718 23.9883 7.79164 23.9478 7.75613C23.923 7.73436 23.8982 7.71259 23.8782 7.68623L23.5415 7.1546L23.403 6.97257C23.3805 6.90802 23.3575 6.84589 23.3347 6.78423L23.3347 6.78422L23.3347 6.78421C23.3223 6.75066 23.3099 6.71723 23.2977 6.68363C23.2045 6.47615 23.0862 6.28196 22.9458 6.10577C22.9074 6.06737 22.862 6.03756 22.8122 6.01818ZM22.0781 6.805C22.1862 6.79889 22.2926 6.83436 22.3773 6.90468C22.4609 7.01915 22.5315 7.14324 22.5879 7.27452L22.9135 7.76282C22.9494 7.81453 22.9904 7.86429 23.0316 7.91426C23.132 8.036 23.2335 8.159 23.264 8.31468C23.2813 8.41447 23.2625 8.5174 23.2113 8.60362L23.1254 8.70474C23.0506 8.70474 22.9758 8.70474 22.8996 8.69607C22.8202 8.68496 22.7476 8.64316 22.6963 8.57896C22.645 8.51476 22.6187 8.43283 22.6225 8.34935C22.6225 8.30168 22.6613 8.14277 22.714 8.14277V8.12832H22.7001V8.11387C22.6111 8.14609 22.5153 8.15258 22.423 8.13265C22.3435 8.03895 22.2717 7.93843 22.2083 7.83216C22.2083 7.80038 22.2208 7.67036 22.2499 7.67036V7.64002C22.0808 7.62413 21.8578 7.53167 21.7968 7.35109C21.7359 7.1705 21.8689 6.81078 22.0808 6.81078L22.0781 6.805ZM25.1412 7.29608C25.5928 7.16317 25.3975 6.61564 24.9611 6.6012V6.61709C24.5676 6.61709 24.6217 7.44777 25.1412 7.29608ZM27.8026 7.82056C28.4704 7.92313 28.4579 8.91273 27.9259 8.91273V8.94162C28.0526 8.97066 28.16 9.05256 28.266 9.13334C28.3235 9.17712 28.3805 9.22058 28.4399 9.25511C28.6556 9.38742 28.891 9.38644 29.1558 9.38534L29.2296 9.38513C29.2939 9.35185 29.3769 9.32091 29.4645 9.2883C29.6429 9.22184 29.8399 9.14844 29.9347 9.03408C29.9886 8.9678 29.9626 8.90387 29.9355 8.83742C29.9201 8.79959 29.9044 8.76094 29.9029 8.72058C29.8991 8.59862 29.94 8.47973 30.0172 8.388C30.0943 8.29627 30.202 8.23854 30.3185 8.22651C30.7854 8.21928 30.9253 8.87227 30.5111 9.01674C30.4328 9.03403 30.3525 9.0389 30.2728 9.03119C30.3448 9.28834 30.9045 9.71452 31.1497 9.80698C31.3478 9.86875 31.5542 9.89609 31.7607 9.88788C31.7856 9.87198 32.096 9.69574 32.0988 9.69574C32.1181 9.38802 32.362 9.07308 32.7139 9.2031C32.7244 9.20694 32.7352 9.2105 32.7461 9.21407L32.7461 9.21408L32.7461 9.21409L32.7461 9.2141L32.7462 9.21411C32.7965 9.23071 32.8475 9.24752 32.876 9.29267C32.9045 9.33223 32.9251 9.3774 32.9365 9.42546C32.9478 9.47352 32.9497 9.52349 32.9421 9.57235C32.9345 9.6212 32.9174 9.66795 32.892 9.70976C32.8666 9.75157 32.8333 9.78759 32.7942 9.81564C32.7208 9.87202 32.6342 9.90693 32.5435 9.91677C32.3292 9.81337 32.1929 9.87899 32.0477 9.94889C31.9535 9.99423 31.8556 10.0414 31.7302 10.0453C31.4285 10.0668 31.1262 10.0138 30.8477 9.89077C30.7265 9.82172 30.6192 9.73227 30.5113 9.64232C30.4183 9.56475 30.3248 9.4868 30.2215 9.42125C30.2092 9.41334 30.1955 9.40268 30.1806 9.39122C30.1386 9.35872 30.0882 9.31975 30.04 9.31868C29.9706 9.31868 29.8339 9.40594 29.7287 9.47306C29.6869 9.49975 29.65 9.52326 29.6244 9.53682C29.3666 9.66966 29.0804 9.73134 28.7932 9.71596C28.5693 9.68054 28.3514 9.61194 28.1462 9.51226C28.1121 9.49664 28.0757 9.46616 28.0375 9.43422L28.0375 9.43421L28.0375 9.4342L28.0375 9.43419C27.9734 9.38048 27.9043 9.32264 27.8331 9.32446C27.7541 9.32646 27.6698 9.38777 27.596 9.44148C27.5636 9.46505 27.5332 9.48716 27.5061 9.50215C27.193 9.67118 26.7428 9.88499 26.3576 9.72174C26.1733 9.63972 25.9909 9.55675 25.808 9.47361L25.8079 9.47354L25.6801 9.41547C25.6757 9.41547 25.6665 9.41199 25.6563 9.40807C25.6347 9.39987 25.6081 9.38972 25.6081 9.40536C25.5376 9.46627 25.4768 9.53843 25.428 9.61917L25.1689 9.86765C24.8918 10.0974 24.1271 10.3126 23.7087 10.2201L23.3624 10.0555C23.2955 10.0538 23.2289 10.0645 23.1656 10.0872C23.0468 10.0965 22.9282 10.0656 22.8276 9.99912C22.7835 9.98022 22.744 9.9512 22.7121 9.9142C22.6803 9.87721 22.6568 9.8332 22.6435 9.78544C22.6302 9.73769 22.6273 9.68742 22.6352 9.63837C22.6431 9.58932 22.6615 9.54276 22.689 9.50215C22.8705 9.27678 23.2432 9.38658 23.3817 9.59172C23.4076 9.62892 23.4194 9.6721 23.4312 9.71526C23.4478 9.77602 23.4644 9.83673 23.5203 9.88065C23.6741 9.97708 23.8506 10.0271 24.0301 10.0251L24.1687 10.0107L24.3224 9.99478C24.4285 9.94428 24.5204 9.90797 24.6032 9.87527C24.8449 9.77981 25.009 9.71497 25.2216 9.41691C25.2882 9.3485 25.3286 9.25705 25.3352 9.15976C25.255 9.15574 25.1785 9.12359 25.1181 9.06853C25.0576 9.01347 25.0168 8.93873 25.0022 8.85644C24.9876 8.77415 25.0001 8.68912 25.0376 8.61516C25.0752 8.5412 25.1356 8.48265 25.2091 8.44899C25.2686 8.41691 25.3347 8.40062 25.4016 8.40154C25.4686 8.40247 25.5343 8.42059 25.5929 8.4543C25.6515 8.48801 25.7013 8.53627 25.7378 8.59481C25.7743 8.65335 25.7963 8.72037 25.8021 8.78993C25.8021 8.83185 25.7924 8.86853 25.7828 8.90454L25.7828 8.90455C25.7737 8.93927 25.7647 8.97338 25.7647 9.01096C25.755 9.01963 25.748 9.02685 25.7647 9.02685C26.0709 9.29534 26.4551 9.44807 26.855 9.46025C26.8903 9.43892 26.9741 9.40321 27.0778 9.35902L27.0778 9.35902C27.3602 9.23866 27.7901 9.05542 27.7901 8.92862H27.8054V8.91417C27.1611 8.79715 27.2512 7.85089 27.8054 7.85089L27.8026 7.82056ZM23.6094 8.36521C23.6094 8.37347 23.6252 8.40099 23.6252 8.38035L23.6094 8.36521ZM31.7418 9.09477C31.7385 9.15341 31.7189 9.20976 31.6852 9.25687C31.6516 9.30398 31.6055 9.33978 31.5525 9.35985C31.4996 9.37991 31.4422 9.38336 31.3874 9.36976C31.3326 9.35616 31.2828 9.32612 31.2442 9.28335C31.2056 9.24057 31.1799 9.18694 31.1702 9.12908C31.1605 9.07122 31.1673 9.01167 31.1897 8.95779C31.2122 8.90392 31.2492 8.85807 31.2964 8.82593C31.3435 8.79379 31.3987 8.77676 31.455 8.77694C31.4939 8.77806 31.5321 8.78718 31.5676 8.80379C31.6031 8.82039 31.6351 8.84414 31.6618 8.87367C31.6884 8.90321 31.7092 8.93795 31.7229 8.97589C31.7367 9.01384 31.7431 9.05424 31.7418 9.09477ZM27.8167 10.6348C25.5737 10.6348 23.7449 10.9064 23.6687 11.2459V10.9136V10.9049V10.8905C23.7449 10.551 25.5723 10.2794 27.8167 10.2794C30.061 10.2794 31.8884 10.551 31.966 10.8905V10.9049V10.9136V11.2459C31.8884 10.9064 30.0596 10.6348 27.8167 10.6348ZM25.6088 11.2141C25.6088 11.2713 25.5926 11.3271 25.5621 11.3746C25.5317 11.4221 25.4884 11.4592 25.4378 11.481C25.3872 11.5029 25.3315 11.5086 25.2777 11.4975C25.224 11.4863 25.1746 11.4588 25.1358 11.4184C25.0971 11.378 25.0707 11.3265 25.06 11.2705C25.0493 11.2144 25.0548 11.1563 25.0758 11.1035C25.0968 11.0507 25.1323 11.0056 25.1778 10.9739C25.2234 10.9421 25.277 10.9252 25.3318 10.9252C25.4052 10.9252 25.4757 10.9556 25.5277 11.0098C25.5796 11.064 25.6088 11.1375 25.6088 11.2141ZM26.8899 11.5666C27.0148 11.5666 27.122 11.4552 27.168 11.2964C27.2131 11.4555 27.3185 11.5666 27.441 11.5666C27.5582 11.5666 27.6625 11.4649 27.7122 11.317C27.7653 11.4466 27.8617 11.5334 27.9696 11.5334C28.0739 11.5334 28.1681 11.4521 28.2226 11.3295C28.2767 11.4521 28.3703 11.5334 28.4747 11.5334C28.6382 11.5334 28.7767 11.334 28.7767 11.0884C28.7767 10.8428 28.6368 10.6449 28.4747 10.6449C28.371 10.6449 28.2769 10.7259 28.2226 10.8485C28.1679 10.7259 28.0733 10.6449 27.9696 10.6449C27.8539 10.6449 27.7501 10.7458 27.7003 10.8929C27.6483 10.7642 27.554 10.6781 27.4465 10.6781C27.3236 10.6781 27.2148 10.7908 27.1684 10.9511C27.1227 10.7916 27.0152 10.6796 26.8899 10.6796C26.7231 10.6796 26.5879 10.8781 26.5879 11.1231C26.5879 11.368 26.7231 11.5666 26.8899 11.5666ZM26.3004 11.3169C26.3309 11.2694 26.3471 11.2135 26.3471 11.1564C26.3471 11.0797 26.3179 11.0062 26.266 10.9521C26.214 10.8979 26.1435 10.8674 26.0701 10.8674C26.0152 10.8674 25.9617 10.8844 25.9161 10.9161C25.8705 10.9479 25.835 10.993 25.8141 11.0458C25.7931 11.0986 25.7876 11.1567 25.7983 11.2127C25.809 11.2688 25.8354 11.3203 25.8741 11.3607C25.9129 11.4011 25.9622 11.4286 26.016 11.4397C26.0697 11.4509 26.1255 11.4452 26.1761 11.4233C26.2267 11.4014 26.27 11.3644 26.3004 11.3169ZM29.5512 11.1231C29.5512 11.1803 29.535 11.2361 29.5045 11.2837C29.4741 11.3312 29.4308 11.3682 29.3802 11.3901C29.3295 11.4119 29.2738 11.4177 29.2201 11.4065C29.1663 11.3954 29.1169 11.3678 29.0782 11.3274C29.0394 11.287 29.0131 11.2355 29.0024 11.1795C28.9917 11.1235 28.9972 11.0654 29.0181 11.0126C29.0391 10.9598 29.0746 10.9146 29.1202 10.8829C29.1657 10.8511 29.2193 10.8342 29.2741 10.8342C29.3476 10.8342 29.4181 10.8646 29.47 10.9188C29.522 10.973 29.5512 11.0465 29.5512 11.1231ZM24.8444 11.483C24.8748 11.4355 24.8911 11.3796 24.8911 11.3225C24.8911 11.2459 24.8619 11.1724 24.8099 11.1182C24.758 11.064 24.6875 11.0336 24.614 11.0336C24.5592 11.0336 24.5056 11.0505 24.4601 11.0823C24.4145 11.114 24.379 11.1591 24.358 11.2119C24.337 11.2647 24.3315 11.3228 24.3422 11.3789C24.3529 11.4349 24.3793 11.4864 24.4181 11.5268C24.4568 11.5672 24.5062 11.5947 24.5599 11.6059C24.6137 11.617 24.6694 11.6113 24.72 11.5894C24.7707 11.5676 24.8139 11.5305 24.8444 11.483ZM24.5132 9.26379C24.5132 9.32093 24.4969 9.3768 24.4665 9.42431C24.436 9.47183 24.3927 9.50886 24.3421 9.53073C24.2915 9.5526 24.2358 9.55832 24.182 9.54717C24.1283 9.53602 24.0789 9.5085 24.0401 9.4681C24.0014 9.42769 23.975 9.3762 23.9643 9.32016C23.9536 9.26411 23.9591 9.20601 23.9801 9.15322C24.001 9.10042 24.0366 9.0553 24.0821 9.02355C24.1277 8.9918 24.1813 8.97485 24.2361 8.97485C24.3096 8.97485 24.38 9.0053 24.432 9.05948C24.484 9.11367 24.5132 9.18716 24.5132 9.26379ZM26.7799 8.61669C26.8104 8.56918 26.8266 8.51332 26.8266 8.45617C26.8266 8.37954 26.7974 8.30605 26.7455 8.25186C26.6935 8.19768 26.623 8.16724 26.5495 8.16724C26.4947 8.16724 26.4412 8.18418 26.3956 8.21593C26.35 8.24768 26.3145 8.2928 26.2936 8.3456C26.2726 8.3984 26.2671 8.45649 26.2778 8.51254C26.2885 8.56859 26.3149 8.62007 26.3536 8.66048C26.3924 8.70089 26.4417 8.7284 26.4955 8.73955C26.5492 8.7507 26.605 8.74498 26.6556 8.72311C26.7062 8.70124 26.7495 8.66421 26.7799 8.61669ZM29.3842 8.37243C29.3842 8.42957 29.368 8.48544 29.3375 8.53295C29.3071 8.58047 29.2638 8.6175 29.2132 8.63937C29.1626 8.66124 29.1068 8.66696 29.0531 8.65581C28.9994 8.64466 28.95 8.61714 28.9112 8.57674C28.8725 8.53633 28.8461 8.48484 28.8354 8.4288C28.8247 8.37275 28.8302 8.31466 28.8512 8.26186C28.8721 8.20906 28.9077 8.16394 28.9532 8.13219C28.9988 8.10044 29.0524 8.0835 29.1072 8.0835C29.1806 8.0835 29.2511 8.11394 29.3031 8.16812C29.355 8.22231 29.3842 8.2958 29.3842 8.37243ZM28.065 6.61204C28.0977 6.56096 28.1152 6.50091 28.1152 6.43948C28.1152 6.3571 28.0838 6.2781 28.0279 6.21985C27.9721 6.1616 27.8963 6.12887 27.8173 6.12887C27.7584 6.12887 27.7008 6.14709 27.6518 6.18122C27.6028 6.21535 27.5646 6.26386 27.5421 6.32061C27.5196 6.37737 27.5137 6.43982 27.5252 6.50007C27.5366 6.56032 27.565 6.61567 27.6067 6.65911C27.6483 6.70255 27.7014 6.73213 27.7592 6.74411C27.817 6.7561 27.8769 6.74995 27.9313 6.72644C27.9857 6.70293 28.0322 6.66312 28.065 6.61204ZM27.7961 6.03785C27.9629 6.03785 28.0982 5.89685 28.0982 5.72291C28.0982 5.54898 27.9629 5.40798 27.7961 5.40798C27.6293 5.40798 27.4941 5.54898 27.4941 5.72291C27.4941 5.89685 27.6293 6.03785 27.7961 6.03785ZM28.052 7.3225C28.0841 7.27237 28.1013 7.21343 28.1013 7.15314C28.1013 7.11311 28.0937 7.07348 28.079 7.03649C28.0643 6.99951 28.0428 6.96591 28.0156 6.9376C27.9885 6.90929 27.9563 6.88684 27.9208 6.87152C27.8853 6.8562 27.8473 6.84832 27.8089 6.84832C27.7511 6.84832 27.6946 6.8662 27.6465 6.89969C27.5985 6.93319 27.561 6.98079 27.5389 7.03649C27.5167 7.09219 27.5109 7.15348 27.5222 7.21261C27.5335 7.27174 27.5613 7.32606 27.6022 7.36869C27.6431 7.41132 27.6952 7.44035 27.7519 7.45211C27.8086 7.46387 27.8674 7.45784 27.9208 7.43477C27.9742 7.41169 28.0199 7.37262 28.052 7.3225ZM22.2881 8.47361C22.2886 8.53351 22.2721 8.59222 22.2405 8.64229C22.209 8.69235 22.1639 8.7315 22.1109 8.75475C22.058 8.77801 21.9996 8.78432 21.9432 8.77288C21.8869 8.76144 21.835 8.73277 21.7943 8.69051C21.7536 8.64826 21.7258 8.59433 21.7146 8.53559C21.7033 8.47684 21.7091 8.41594 21.7312 8.36063C21.7532 8.30531 21.7905 8.25808 21.8384 8.22495C21.8862 8.19182 21.9425 8.17428 21.9999 8.17456C22.0761 8.17456 22.1492 8.20602 22.2032 8.26206C22.2572 8.3181 22.2877 8.39417 22.2881 8.47361ZM32.9407 6.54654C32.9698 6.50116 32.9853 6.44782 32.9853 6.39324C32.9853 6.32006 32.9574 6.24988 32.9078 6.19813C32.8582 6.14638 32.7908 6.11731 32.7207 6.11731C32.6683 6.11731 32.6172 6.13349 32.5737 6.16381C32.5301 6.19413 32.4962 6.23723 32.4762 6.28765C32.4562 6.33807 32.4509 6.39355 32.4611 6.44707C32.4713 6.5006 32.4965 6.54977 32.5336 6.58836C32.5706 6.62694 32.6177 6.65322 32.669 6.66387C32.7204 6.67452 32.7736 6.66905 32.8219 6.64817C32.8703 6.62729 32.9116 6.59192 32.9407 6.54654ZM32.5342 7.11124C32.5342 7.16587 32.5187 7.21928 32.4896 7.26468C32.4604 7.31009 32.419 7.34546 32.3706 7.3663C32.3221 7.38714 32.2689 7.39252 32.2175 7.38175C32.1661 7.37099 32.119 7.34457 32.082 7.30583C32.0451 7.2671 32.02 7.2178 32.0099 7.16418C31.9999 7.11056 32.0053 7.05503 32.0256 7.00464C32.0458 6.95424 32.0799 6.91125 32.1236 6.8811C32.1673 6.85096 32.2186 6.83502 32.271 6.83531C32.341 6.83569 32.4079 6.86493 32.4572 6.91663C32.5066 6.96834 32.5343 7.0383 32.5342 7.11124ZM28.1226 5.12215C28.1665 5.05825 28.1913 4.98229 28.194 4.90376C28.1959 4.79595 28.1567 4.69177 28.085 4.61405C28.0133 4.53633 27.915 4.49141 27.8117 4.48914C27.7363 4.4889 27.6625 4.51181 27.5996 4.55501C27.5366 4.5982 27.4873 4.65976 27.4576 4.73202C27.428 4.80428 27.4195 4.88403 27.433 4.96133C27.4466 5.03863 27.4817 5.11005 27.5339 5.16669C27.5861 5.22333 27.6532 5.26268 27.7268 5.27983C27.8003 5.29699 27.8771 5.29118 27.9475 5.26314C28.0179 5.2351 28.0788 5.18606 28.1226 5.12215ZM25.5073 5.05834C25.5073 5.11549 25.491 5.17135 25.4606 5.21887C25.4301 5.26638 25.3869 5.30341 25.3362 5.32528C25.2856 5.34715 25.2299 5.35287 25.1761 5.34172C25.1224 5.33058 25.073 5.30306 25.0343 5.26265C24.9955 5.22224 24.9691 5.17076 24.9584 5.11471C24.9478 5.05866 24.9532 5.00057 24.9742 4.94777C24.9952 4.89498 25.0307 4.84985 25.0763 4.8181C25.1218 4.78635 25.1754 4.76941 25.2302 4.76941C25.3037 4.76941 25.3742 4.79985 25.4261 4.85404C25.4781 4.90822 25.5073 4.98171 25.5073 5.05834ZM30.4154 5.90042C30.4494 5.85002 30.4684 5.79028 30.4701 5.72868C30.4706 5.68694 30.4633 5.6455 30.4485 5.60672C30.4337 5.56794 30.4117 5.53258 30.3838 5.50266C30.3558 5.47275 30.3225 5.44886 30.2858 5.43236C30.249 5.41586 30.2095 5.40708 30.1694 5.40652C30.1103 5.40654 30.0526 5.42473 30.0033 5.45881C29.9541 5.49289 29.9156 5.54135 29.8926 5.59813C29.8696 5.65491 29.8632 5.71749 29.8741 5.77805C29.8851 5.83862 29.9129 5.89447 29.9541 5.93864C29.9953 5.98281 30.0481 6.01333 30.1059 6.02639C30.1636 6.03944 30.2238 6.03446 30.2789 6.01206C30.3339 5.98965 30.3814 5.95082 30.4154 5.90042ZM30.8094 5.03381C30.8046 5.09565 30.7825 5.15469 30.746 5.20369C30.7095 5.25269 30.6601 5.28954 30.6038 5.30972C30.5475 5.3299 30.4869 5.33254 30.4292 5.31732C30.3715 5.30211 30.3193 5.26969 30.279 5.22403C30.2387 5.17837 30.212 5.12146 30.2022 5.06025C30.1925 4.99904 30.2 4.93618 30.2239 4.87937C30.2479 4.82256 30.2872 4.77425 30.337 4.74036C30.3869 4.70647 30.4451 4.68846 30.5046 4.68853C30.5464 4.6902 30.5875 4.70047 30.6255 4.71876C30.6634 4.73704 30.6976 4.76297 30.7259 4.79506C30.7542 4.82715 30.7762 4.86476 30.7905 4.90574C30.8048 4.94671 30.8113 4.99023 30.8094 5.03381ZM26.2927 7.24817C26.3257 7.19648 26.3433 7.13576 26.3433 7.07366C26.3435 7.03188 26.3357 6.99048 26.3203 6.95189C26.3049 6.91331 26.2823 6.87832 26.2538 6.84898C26.2253 6.81964 26.1914 6.79654 26.1542 6.78104C26.117 6.76554 26.0772 6.75795 26.0371 6.75872C25.9776 6.75957 25.9196 6.77877 25.8705 6.81389C25.8214 6.84901 25.7833 6.89849 25.7611 6.95611C25.7388 7.01373 25.7335 7.07691 25.7456 7.13771C25.7577 7.19852 25.7868 7.25423 25.8292 7.29784C25.8716 7.34145 25.9254 7.37102 25.9839 7.38282C26.0423 7.39463 26.1029 7.38814 26.1578 7.36419C26.2127 7.34023 26.2597 7.29986 26.2927 7.24817ZM26.0487 6.38171C26.049 6.4432 26.0318 6.50339 25.9992 6.55466C25.9666 6.60593 25.9202 6.64596 25.8658 6.66969C25.8114 6.69343 25.7515 6.69978 25.6936 6.68796C25.6357 6.67614 25.5825 6.64667 25.5407 6.60329C25.4989 6.55991 25.4704 6.50457 25.4588 6.44428C25.4472 6.38399 25.453 6.32146 25.4755 6.26462C25.498 6.20778 25.5362 6.15919 25.5852 6.125C25.6342 6.0908 25.6919 6.07255 25.7509 6.07255C25.7899 6.07236 25.8286 6.08021 25.8647 6.09566C25.9009 6.11112 25.9337 6.13386 25.9614 6.16259C25.9891 6.19131 26.011 6.22546 26.026 6.26306C26.041 6.30066 26.0487 6.34098 26.0487 6.38171ZM25.7354 5.89085C25.7675 5.84072 25.7846 5.78178 25.7846 5.72149C25.7846 5.64065 25.7538 5.56312 25.699 5.50595C25.6442 5.44878 25.5698 5.41667 25.4923 5.41667C25.4345 5.41667 25.378 5.43455 25.3299 5.46804C25.2818 5.50154 25.2444 5.54914 25.2223 5.60484C25.2001 5.66054 25.1943 5.72183 25.2056 5.78096C25.2169 5.84009 25.2447 5.89441 25.2856 5.93704C25.3265 5.97967 25.3786 6.0087 25.4353 6.02046C25.492 6.03222 25.5508 6.02619 25.6042 6.00312C25.6576 5.98004 25.7033 5.94097 25.7354 5.89085ZM24.9866 7.99826C24.9866 8.05227 24.9712 8.10505 24.9425 8.14996C24.9137 8.19486 24.8728 8.22985 24.8249 8.25052C24.7771 8.27119 24.7244 8.27659 24.6737 8.26606C24.6229 8.25552 24.5762 8.22952 24.5396 8.19133C24.503 8.15315 24.478 8.1045 24.4679 8.05153C24.4578 7.99857 24.463 7.94367 24.4828 7.89377C24.5026 7.84388 24.5362 7.80124 24.5793 7.77124C24.6223 7.74123 24.6729 7.72522 24.7247 7.72522C24.7942 7.72522 24.8608 7.75399 24.9099 7.80519C24.959 7.8564 24.9866 7.92585 24.9866 7.99826ZM25.612 7.82972C25.6406 7.7846 25.6558 7.73161 25.6555 7.67749C25.6555 7.60545 25.6281 7.53637 25.5792 7.48544C25.5304 7.4345 25.4641 7.40589 25.3951 7.40589C25.3432 7.4056 25.2923 7.42141 25.2491 7.4513C25.2058 7.48119 25.172 7.52382 25.152 7.57377C25.132 7.62372 25.1267 7.67874 25.1368 7.73184C25.1469 7.78494 25.1718 7.83372 25.2085 7.872C25.2452 7.91027 25.292 7.9363 25.3429 7.94679C25.3939 7.95728 25.4466 7.95175 25.4945 7.93091C25.5424 7.91006 25.5833 7.87484 25.612 7.82972ZM29.9055 7.11985C29.9007 7.1794 29.8793 7.2362 29.844 7.28329C29.8087 7.33039 29.7611 7.36575 29.7068 7.38506C29.6526 7.40437 29.5941 7.40679 29.5386 7.39202C29.4831 7.37726 29.4328 7.34594 29.3941 7.30191C29.3553 7.25788 29.3297 7.20303 29.3204 7.14406C29.311 7.0851 29.3183 7.02457 29.3414 6.96987C29.3645 6.91517 29.4024 6.86866 29.4504 6.83603C29.4984 6.80341 29.5545 6.78607 29.6118 6.78613C29.6932 6.78988 29.7698 6.82712 29.8248 6.88968C29.8799 6.95224 29.9089 7.03501 29.9055 7.11985ZM30.1884 6.63029C30.2234 6.5765 30.2424 6.51311 30.2429 6.44809C30.2431 6.40464 30.2351 6.36158 30.2193 6.32137C30.2036 6.28116 30.1803 6.24459 30.151 6.21373C30.1217 6.18288 30.0868 6.15835 30.0484 6.14155C30.01 6.12475 29.9687 6.116 29.9271 6.11581C29.8647 6.11582 29.8038 6.13506 29.7519 6.17113C29.7 6.2072 29.6595 6.25847 29.6355 6.31849C29.6115 6.37851 29.6051 6.44459 29.6171 6.5084C29.629 6.57222 29.6589 6.63091 29.7028 6.67709C29.7467 6.72327 29.8027 6.75486 29.8638 6.7679C29.9249 6.78093 29.9883 6.77482 30.046 6.75033C30.1038 6.72584 30.1533 6.68407 30.1884 6.63029Z" fill="white"/>
<path fill-rule="evenodd" clip-rule="evenodd" d="M32.9898 14.5932C31.6016 12.8653 28.9458 11.9682 26.3786 12.4435C23.0966 13.043 21.6295 15.7157 21.2291 16.5521C21.1476 16.7263 21.0576 16.899 20.9587 17.0886C20.7887 17.4148 20.5927 17.7907 20.3701 18.3089C18.7714 17.9896 17.8598 18.5559 17.6893 19.3822C18.043 19.435 18.3784 19.5789 18.6653 19.8009C18.9522 20.0229 19.1815 20.3159 19.3324 20.6536C19.5753 21.2172 19.784 21.7962 19.9573 22.3872C19.994 22.5028 20.0354 22.6388 20.0821 22.7922L20.0821 22.7922L20.0822 22.7926L20.0822 22.7926L20.0822 22.7927C20.3873 23.7955 20.9191 25.5441 21.8802 27.234C19.4211 28.6989 18.3045 31.4438 18.0357 32.1661C17.9513 32.3932 17.8702 32.6201 17.7895 32.846C17.481 33.7097 17.1777 34.5588 16.7099 35.3444C16.0698 36.2921 15.143 36.5709 14.0139 36.282H14C14.0054 36.9666 14.2552 37.6245 14.7006 38.1275C15.1461 38.6305 15.7552 38.9423 16.4092 39.0023C16.4092 39.0081 16.4591 39.4025 16.4854 39.5946C17.0659 42.5099 18.5788 45.5987 23.0495 48.514C24.1934 49.2598 25.3199 49.6904 26.2867 50.06C27.6629 50.5861 28.7155 50.9885 29.0345 52C30.1234 51.8006 30.5612 50.954 30.5279 50.301C30.506 49.9536 30.3886 49.6201 30.1899 49.3403C31.1001 49.2248 32.8665 48.8607 33.4706 48.6093C34.795 48.0604 36.0128 46.987 36.9036 45.7489C37.0828 45.4957 37.2536 45.2348 37.4244 44.9741L37.4245 44.9739C37.5323 44.8093 37.6402 44.6446 37.7501 44.4819C37.7812 44.4404 37.8406 44.3552 37.92 44.241L37.9202 44.2407L37.9203 44.2407L37.9203 44.2407C38.2862 43.7148 39.0785 42.5765 39.511 42.2716C39.6681 42.1743 39.8315 42.0884 40 42.0144C39.6647 40.7099 38.6257 40.2982 37.8789 40.4426L37.879 40.4385C37.8798 40.3869 37.8875 39.873 37.8651 39.6582C37.6351 37.4579 35.5334 35.7576 33.5107 36.2256C32.3359 36.4915 31.6723 37.2586 31.7249 38.3146C31.8164 38.3363 32.6407 38.5617 32.8984 38.748C33.2641 39.0124 33.5384 39.5874 33.429 40.0656H33.4124C33.4124 40.067 33.3574 40.0359 33.2811 39.9926L33.281 39.9926C33.132 39.908 32.9016 39.7774 32.8402 39.7535C32.1683 39.4834 31.0987 39.4617 30.7316 40.1638C31.5448 40.4484 31.5836 41.6692 31.4451 42.2253C30.9283 44.336 29.1772 45.2953 27.2584 45.2736C23.1118 45.2274 19.1884 39.2782 20.251 33.761C20.6532 31.7635 21.6758 29.9599 23.1603 28.6296C25.3728 30.4181 29.094 30.223 30.7995 29.4675C30.8269 29.4551 30.8584 29.4417 30.893 29.4269C31.3163 29.2462 32.2121 28.8638 32.002 27.8061C31.7748 26.6619 28.6867 26.1361 27.5687 26.0725C26.3097 26.0211 25.0502 26.1573 23.8281 26.477C22.9705 25.2606 22.088 21.2863 24.1454 20.3372C24.1842 19.664 23.3141 19.7752 23.037 19.8662C23.6702 17.156 25.4269 14.8575 27.6879 14.8575C28.3517 14.8372 29.0063 15.0239 29.5679 15.3935C30.28 15.8934 30.7912 16.9191 30.3659 17.8104C30.2966 17.952 30.1996 18.1369 29.7036 18.3551C30.0237 19.7723 31.7984 19.1222 31.9092 18.5212C32.2943 18.8275 31.7665 19.8301 31.3093 19.8214C30.9877 19.8153 30.941 19.7964 30.8552 19.7615C30.8191 19.7468 30.776 19.7293 30.7025 19.7087C30.3118 21.0609 31.5698 21.7038 32.4273 21.5695C33.7798 21.351 34.27 20.3408 34.5895 19.6823C34.6313 19.5961 34.6702 19.5159 34.7077 19.4444C35.9546 19.4891 36.1624 18.9951 36.1624 18.0445C35.5875 18.228 35.2841 18.2771 34.9072 18.017C34.697 17.8718 34.4411 17.3207 34.1393 16.6709C33.8106 15.9633 33.4275 15.1384 32.9898 14.5932ZM23.7565 20.158C23.2356 19.6769 21.501 19.9991 21.1575 21.1216C20.5687 17.3713 17.766 18.5053 17.9391 19.2262C19.3315 19.2421 19.8967 19.9991 20.0921 20.7388C20.1807 21.0756 20.267 21.4177 20.3539 21.762C20.8574 23.7586 21.3792 25.8274 22.4805 27.338C23.7883 29.1323 26.3195 29.8214 28.3228 29.7102C30.2984 29.6004 30.9703 29.1381 31.3568 28.6729C30.3455 29.2276 29.6957 29.3476 28.3006 29.4415C26.9055 29.5354 24.5379 29.0081 23.2134 27.5634C21.8211 26.0479 21.5135 24.4386 21.368 23.0849C21.2226 21.7313 22.4528 20.1219 23.7565 20.158ZM30.596 27.8784C30.5822 28.3624 29.2425 28.712 27.6049 28.66C25.9674 28.6079 25.089 28.1038 24.6415 27.5562C24.7925 27.3785 26.0186 26.8556 27.6562 26.909C29.2937 26.9625 30.6085 27.3959 30.596 27.8784ZM23.5299 14.7449C24.9001 13.2901 27.1818 12.3395 30.5595 13.3898C28.3303 12.0997 24.6659 12.6545 22.8053 14.8012C21.8757 15.8631 21.2661 17.2355 20.7979 18.4129C21.0078 18.5579 21.1996 18.7297 21.3686 18.9243C22.0198 16.7356 22.7444 15.5799 23.5299 14.7449ZM29.0674 13.4548C29.1106 13.4659 29.1533 13.4773 29.1954 13.489C29.1533 13.4767 29.1107 13.4653 29.0674 13.4548ZM29.1954 13.489C33.914 14.8 31.6147 19.7212 30.015 18.3667C32.0976 18.1208 31.7492 14.234 29.1954 13.489ZM18.5495 33.299C19.1751 31.4233 19.8218 29.4842 21.1681 28.2265C20.7372 28.5169 19.8907 29.2508 19.144 30.6131C18.6734 31.4711 18.1905 32.6721 17.7768 33.7008C17.3963 34.6469 17.0745 35.4472 16.8747 35.7012L16.8315 35.7564C16.4017 36.3063 15.5826 37.3542 14.1953 36.4452C14.2832 36.791 14.4697 37.1008 14.7301 37.3337C16.1451 38.3947 16.9662 36.9939 17.3849 36.2797L17.4192 36.2213C17.8655 35.35 18.2043 34.3342 18.5495 33.299ZM20.5151 31.5161C19.4165 33.4562 18.2125 37.6169 21.6373 42.5721C20.5553 43.0301 17.3148 41.8859 16.5625 39.024C16.6451 39.0021 16.7493 38.9804 16.8616 38.957C17.0977 38.9077 17.3695 38.851 17.5517 38.7697C18.6761 42.0891 20.4382 42.2792 21.2209 42.3637C21.2772 42.3698 21.3285 42.3753 21.374 42.3814C18.9149 39.6972 18.1834 34.3606 20.5151 31.5161ZM34.8883 43.917C36.2668 39.1886 33.4488 38.1904 31.9609 38.1701C33.1801 35.8659 38.7203 38.6498 34.8883 43.917ZM26.96 46.8137C33.5033 45.8472 33.7263 42.5562 33.4534 41.5536C33.1805 40.551 31.9599 39.95 31.2783 39.9645C31.9447 39.56 34.2999 40.0353 34.25 42.3106C34.1849 45.2202 30.7477 47.0159 26.96 46.8137ZM30.7773 19.7839C32.2112 22.4565 34.0843 18.3565 32.3345 15.824C32.8153 18.5704 32.1905 19.6322 31.4797 19.9428C31.1306 20.0945 30.7773 19.7839 30.7773 19.7839ZM33.446 15.8038C33.7481 17.5547 34.3576 19.7781 35.901 18.2958C34.6824 18.8778 34.1147 17.4661 33.5409 16.0391C33.5093 15.9606 33.4778 15.882 33.446 15.8038ZM30.3288 26.9817C30.4742 27.0288 30.5425 27.0509 30.5445 27.0246C30.5501 26.9365 29.4002 26.4438 27.9455 26.2994C26.1985 26.1867 25.1123 26.6114 25.2079 26.7212C25.2433 26.7619 25.4049 26.7346 25.6747 26.689C26.1333 26.6115 26.9045 26.4811 27.8998 26.5421C29.225 26.6241 29.9883 26.8714 30.3288 26.9817ZM19.1445 44.4112C22.6374 48.2314 25.83 48.9381 27.7594 49.3651C29.0404 49.6486 29.7645 49.8089 29.6501 50.6753C29.6325 50.8848 29.5752 51.0886 29.4815 51.2748C29.3878 51.461 29.2596 51.626 29.1043 51.7602C29.129 50.6872 28.1491 50.3313 26.6653 49.7925C24.6652 49.0662 21.7494 48.0074 19.1445 44.4112ZM38.8717 40.8788C39.0814 40.9759 39.2478 41.1526 39.3372 41.3729C38.3239 41.0465 37.8639 42.0084 37.2404 43.3123C36.6636 44.5184 35.9469 46.0171 34.5229 47.0591C31.5927 49.2001 27.2024 48.4966 24.6768 47.5691C29.2126 48.4677 32.5126 48.3102 34.8817 45.8182C35.7847 44.8681 36.2964 43.7481 36.7256 42.8085C37.323 41.5007 37.7607 40.5426 38.8717 40.8788Z" fill="white"/>
</svg>
