<svg width="35" height="34" viewBox="0 0 35 34" fill="none" xmlns="http://www.w3.org/2000/svg">
<path fill-rule="evenodd" clip-rule="evenodd" d="M28.7751 5.67812C25.7931 2.69257 21.8272 1.04765 17.6021 1.0459C8.89605 1.0459 1.81055 8.1312 1.80705 16.8396C1.80588 19.6234 2.53311 22.3409 3.91538 24.7362L1.67456 32.9209L10.0478 30.7244C12.3549 31.983 14.9524 32.6462 17.5957 32.647H17.6023C26.3075 32.647 33.3937 25.5611 33.397 16.8523C33.3988 12.6317 31.7574 8.66349 28.7751 5.67812ZM17.6021 29.9795H17.5967C15.2411 29.9785 12.9308 29.3455 10.9149 28.1496L10.4357 27.8649L5.46691 29.1684L6.79316 24.3239L6.48091 23.8273C5.16672 21.737 4.47277 19.3211 4.47393 16.8406C4.47666 9.60238 10.3661 3.71356 17.6074 3.71356C21.114 3.71473 24.4102 5.08202 26.8888 7.5635C29.3673 10.045 30.7315 13.3434 30.7303 16.8513C30.7272 24.0901 24.8382 29.9795 17.6021 29.9795ZM24.8032 20.1472C24.4086 19.9495 22.4682 18.995 22.1063 18.8631C21.7449 18.7314 21.4815 18.6659 21.2186 19.0608C20.9554 19.4557 20.1992 20.3448 19.9688 20.608C19.7385 20.8715 19.5085 20.9045 19.1138 20.7069C18.719 20.5094 17.4475 20.0925 15.9399 18.748C14.7668 17.7015 13.9748 16.4091 13.7444 16.0142C13.5145 15.6188 13.7425 15.4258 13.9176 15.2087C14.3448 14.6782 14.7726 14.122 14.9041 13.8587C15.0358 13.5953 14.9699 13.3648 14.8711 13.1673C14.7726 12.9698 13.9833 11.0273 13.6545 10.2368C13.3339 9.46756 13.0088 9.57145 12.7664 9.55939C12.5365 9.54791 12.2732 9.54557 12.01 9.54557C11.747 9.54557 11.3194 9.64421 10.9575 10.0395C10.5958 10.4347 9.57639 11.3893 9.57639 13.3319C9.57639 15.2745 10.9906 17.1511 11.1878 17.4145C11.3851 17.6779 13.9709 21.6643 17.9298 23.3736C18.8714 23.7806 19.6064 24.0232 20.1797 24.2051C21.1252 24.5055 21.9853 24.463 22.6655 24.3615C23.4238 24.2481 25.0003 23.4066 25.3295 22.4849C25.6582 21.5629 25.6582 20.7728 25.5594 20.608C25.461 20.4435 25.1977 20.3448 24.8032 20.1472Z" fill="white"/>
</svg>
