<svg width="23" height="23" viewBox="0 0 23 23" fill="none" xmlns="http://www.w3.org/2000/svg">
<path fill-rule="evenodd" clip-rule="evenodd" d="M21.5901 4.23725C21.3323 3.92782 21.0095 3.67895 20.6446 3.50833C20.2798 3.33771 19.8818 3.24951 19.4791 3.25H4.6584L4.6199 2.92825C4.54111 2.25947 4.21967 1.64284 3.71651 1.19527C3.21336 0.747705 2.56347 0.500313 1.89006 0.5H1.68656C1.44345 0.5 1.21029 0.596577 1.03838 0.768485C0.866475 0.940394 0.769897 1.17355 0.769897 1.41667C0.769897 1.65978 0.866475 1.89294 1.03838 2.06485C1.21029 2.23676 1.44345 2.33333 1.68656 2.33333H1.89006C2.11459 2.33336 2.33129 2.41579 2.49907 2.56499C2.66685 2.71419 2.77404 2.91977 2.80031 3.14275L4.06165 13.8678C4.1926 14.9831 4.7285 16.0116 5.56765 16.758C6.40679 17.5044 7.49076 17.9167 8.61381 17.9167H18.1866C18.4297 17.9167 18.6628 17.8201 18.8347 17.6482C19.0067 17.4763 19.1032 17.2431 19.1032 17C19.1032 16.7569 19.0067 16.5237 18.8347 16.3518C18.6628 16.1799 18.4297 16.0833 18.1866 16.0833H8.61381C8.04645 16.0817 7.49346 15.9047 7.03067 15.5765C6.56788 15.2483 6.21793 14.7849 6.02881 14.25H16.9555C18.0301 14.2501 19.0705 13.8725 19.8951 13.1834C20.7196 12.4943 21.2758 11.5373 21.4664 10.4798L22.186 6.48858C22.2578 6.09259 22.2417 5.68565 22.1387 5.29658C22.0357 4.90752 21.8485 4.54587 21.5901 4.23725ZM20.3866 6.16317L19.6661 10.1543C19.5516 10.7896 19.2173 11.3643 18.7218 11.7779C18.2262 12.1915 17.601 12.4176 16.9555 12.4167H5.73731L4.87473 5.08333H19.4791C19.6137 5.08253 19.7469 5.1114 19.8691 5.1679C19.9914 5.2244 20.0997 5.30713 20.1863 5.41022C20.2729 5.51331 20.3358 5.63422 20.3704 5.76436C20.405 5.8945 20.4105 6.03066 20.3866 6.16317ZM7.18673 22.5C8.19925 22.5 9.02006 21.6792 9.02006 20.6666C9.02006 19.6541 8.19925 18.8333 7.18673 18.8333C6.1742 18.8333 5.35339 19.6541 5.35339 20.6666C5.35339 21.6792 6.1742 22.5 7.18673 22.5ZM18.1866 20.6666C18.1866 21.6792 17.3658 22.5 16.3532 22.5C15.3407 22.5 14.5199 21.6792 14.5199 20.6666C14.5199 19.6541 15.3407 18.8333 16.3532 18.8333C17.3658 18.8333 18.1866 19.6541 18.1866 20.6666Z" fill="#E48C3A"/>
</svg>
