<svg width="13" height="16" viewBox="0 0 13 16" fill="none" xmlns="http://www.w3.org/2000/svg">
<path fill-rule="evenodd" clip-rule="evenodd" d="M0.531282 7.74098C1.13338 7.14549 2.10422 7.15086 2.69971 7.75296L6.53808 11.634L10.3764 7.75296C10.9719 7.15086 11.9428 7.14549 12.5449 7.74098C13.147 8.33647 13.1523 9.30731 12.5569 9.90941L7.62828 14.8927C7.34025 15.184 6.94768 15.3479 6.53808 15.3479C6.12848 15.3479 5.7359 15.184 5.44787 14.8927L0.519301 9.90941C-0.0761852 9.30731 -0.0708213 8.33647 0.531282 7.74098Z" fill="#073E80"/>
<path fill-rule="evenodd" clip-rule="evenodd" d="M6.53919 0.652344C7.38603 0.652344 8.07253 1.33884 8.07253 2.18568V12.9829C8.07253 13.8297 7.38603 14.5162 6.53919 14.5162C5.69236 14.5162 5.00586 13.8297 5.00586 12.9829V2.18568C5.00586 1.33884 5.69236 0.652344 6.53919 0.652344Z" fill="#073E80"/>
</svg>
