<svg width="217" height="101" viewBox="0 0 217 101" fill="none" xmlns="http://www.w3.org/2000/svg">
<path d="M110.031 21.0935C115.362 20.1335 120.877 21.9455 123.76 25.4353C125.503 27.5479 126.829 31.738 127.741 32.3507C128.524 32.8759 129.154 32.7767 130.348 32.4061C130.348 34.3261 129.916 35.324 127.327 35.2336C126.654 36.4824 125.768 39.0269 122.592 39.5258C120.811 39.7972 118.199 38.4987 119.01 35.7676C119.525 35.9076 119.32 35.9777 120.27 35.9952C121.219 36.0127 122.315 33.9876 121.516 33.3691C121.285 34.5829 117.6 35.8959 116.936 33.0335C117.965 32.5929 118.167 32.2194 118.311 31.9334C119.194 30.1331 118.132 28.0614 116.654 27.0518C115.487 26.3052 114.128 25.9283 112.75 25.9693C108.055 25.9693 104.407 30.6116 103.092 36.0856C103.667 35.9018 105.474 35.6771 105.394 37.0368C101.121 38.9539 102.954 46.981 104.735 49.4379C107.272 48.7923 109.888 48.5171 112.502 48.6209C114.824 48.7493 121.236 49.8114 121.708 52.1224C122.18 54.4333 119.965 55.1482 119.211 55.4779C115.67 57.004 107.942 57.3979 103.348 53.7856C100.265 56.4725 98.1419 60.1153 97.3066 64.1499C95.1001 75.2934 103.247 87.3092 111.858 87.4026C115.842 87.4464 119.479 85.5089 120.552 81.2459C120.839 80.1225 120.759 77.6569 119.07 77.082C119.833 75.6639 122.054 75.7077 123.449 76.2533C123.642 76.3263 124.637 76.8924 124.637 76.8836H124.671C124.899 75.9178 124.329 74.7565 123.57 74.2225C123.035 73.8461 121.323 73.3909 121.133 73.3471C121.024 71.2141 122.402 69.6647 124.841 69.1278C129.041 68.1824 133.406 71.6168 133.883 76.0608C133.932 76.516 133.912 77.6364 133.912 77.6452C135.463 77.3534 137.62 78.185 138.317 80.8199C137.967 80.9692 137.627 81.1427 137.301 81.3392C136.208 82.0891 134.007 85.3338 133.644 85.8036C133.055 86.6527 132.494 87.5281 131.887 88.3626C130.037 90.8632 127.508 93.0312 124.758 94.14C123.503 94.6478 119.835 95.3831 117.945 95.6165C118.358 96.1816 118.602 96.8552 118.647 97.5569C118.716 98.8758 117.807 100.586 115.546 100.988C114.418 97.5102 108.875 97.5977 103.118 93.9475C93.8343 88.0591 90.6927 81.8207 89.4873 75.9324C89.4326 75.5443 89.3291 74.7477 89.3291 74.736C87.971 74.6149 86.706 73.985 85.781 72.9692C84.8561 71.9533 84.3374 70.6244 84.3262 69.2416H84.3549C86.6996 69.8252 88.6242 69.2621 89.9533 67.3479C91.1789 65.3463 91.8607 63.1403 92.7065 60.9286C93.2646 59.4696 95.5834 53.9256 100.69 50.9669C98.3883 47.0306 97.2721 42.9368 96.6967 41.1773C96.337 39.9838 95.9037 38.8143 95.3993 37.6759C95.0858 36.9939 94.6097 36.402 94.0139 35.9537C93.4182 35.5053 92.7216 35.2147 91.9873 35.1081C92.3412 33.4391 94.2341 32.2953 97.5541 32.9401C98.2848 31.2857 98.8774 30.349 99.3377 29.392C100.169 27.7025 103.216 22.3044 110.031 21.0935Z" fill="#D9924E"/>
<path d="M99.1889 38.6213C99.9024 36.354 103.504 35.7034 104.586 36.675C101.879 36.6021 99.3242 39.8526 99.6262 42.5867C99.9283 45.3207 100.567 48.5713 103.458 51.6321C106.209 54.55 111.125 55.6151 114.022 55.4254C116.919 55.2357 118.268 54.9936 120.369 53.8731C119.566 54.8126 118.171 55.7464 114.068 55.9681C109.908 56.1928 104.652 54.801 101.936 51.177C99.2551 47.5996 98.2281 42.4729 96.9766 37.848C96.571 36.354 95.3972 34.8251 92.506 34.793C92.1464 33.3369 97.9663 31.0464 99.1889 38.6213Z" fill="white"/>
<path d="M118.789 52.2684C118.76 53.2459 115.978 53.952 112.577 53.8469C109.177 53.7419 107.353 52.7235 106.424 51.6177C106.737 51.2588 109.283 50.2025 112.684 50.3104C116.084 50.4184 118.815 51.2938 118.789 52.2684Z" fill="white"/>
<path d="M5.46526 42.2891V43.4154C4.62233 43.6342 4.6022 44.8743 4.6022 45.1953V62.4955H9.82661V45.1953C9.82661 44.4454 9.65112 43.6342 8.94341 43.4154V42.2891H13.3422V43.4154C12.6344 43.6021 12.4791 44.3841 12.4791 45.1953V60.9665C12.4791 62.1337 12.6546 62.37 12.9883 62.869C13.6444 63.7738 13.9919 64.8709 13.9779 65.994C13.9779 67.9286 12.9193 70.6452 10.7501 70.6452C9.72304 70.6452 8.33063 69.9595 7.20002 69.1162C6.62464 68.7077 5.11716 67.774 4.62521 67.774C4.55456 67.7742 4.48471 67.7891 4.42 67.8179C4.3553 67.8467 4.29712 67.8886 4.24909 67.9412C4.20106 67.9937 4.1642 68.0557 4.14081 68.1233C4.11742 68.191 4.10799 68.2627 4.11313 68.3342C4.11313 68.6464 4.21669 68.6785 4.32314 68.6785H4.57055C4.92441 68.7398 5.04811 69.1775 5.04811 69.5831C5.04811 70.1666 4.76042 70.5926 4.28574 70.6773C2.32371 71.0303 2.6229 69.8223 2.6229 68.8857C2.6229 67.3538 3.3824 65.7577 6.42326 65.8073C9.33466 65.854 9.65399 68.1416 11.826 68.1416C12.3381 68.1416 12.7697 67.6076 12.7697 66.2041C12.7697 64.9553 12.4072 64.1441 11.6851 64.1441H1.07227V63.0265C1.44338 62.9653 1.95547 62.5568 1.95547 61.2466V45.1982C1.95547 44.104 1.54983 43.4796 1.07227 43.4183V42.292L5.46526 42.2891Z" fill="#82592A"/>
<path d="M17.5489 56.4671V56.6071H22.1519V56.5138L19.8504 47.9118H19.7814L17.5489 56.4671ZM15.3337 60.6222L18.9011 47.2874C19.0531 46.6643 19.1247 46.0238 19.1139 45.382C19.1139 44.6642 18.4954 44.7255 18.2825 44.7576V43.6342C19.6232 43.4445 19.5282 42.467 19.7929 41.9476H21.145L25.7682 59.0582C26.5794 62.0578 27.0397 62.6822 27.4281 63.0265V64.1499H22.3792V63.0265C23.084 63.0586 23.3487 61.9644 23.3487 61.2466C23.3231 60.9197 23.2701 60.5957 23.1905 60.2779L22.6439 58.2353H17.0138L16.5535 60.0794C16.378 60.7651 15.9005 62.5159 17.5086 63.0148V64.1382H14.0564V63.0265C14.7641 62.6209 15.187 61.2145 15.3452 60.6222" fill="#82592A"/>
<path d="M32.0046 52.096C32.0046 53.7213 32.9569 54.7513 33.8545 54.7513C35.4454 54.7513 35.5806 52.096 35.5806 49.1898C35.5806 46.2836 35.5432 43.602 33.8545 43.602C32.8821 43.602 31.9845 44.7254 31.9845 46.7884L32.0046 52.096ZM28.4805 63.0264C28.8142 62.9652 29.3435 62.5566 29.3435 61.2144V49.0205C29.3435 44.2089 31.3372 41.9622 33.7049 41.9622C36.6335 41.9622 38.5064 45.0522 38.5064 49.2365C38.5064 52.5483 37.534 56.823 34.6744 56.823C33.9494 56.823 32.9483 56.6362 31.9931 55.4487V61.2261C31.9931 62.0081 32.3096 62.9126 32.9281 63.0381V64.1615H28.4805V63.0264Z" fill="#82592A"/>
<path d="M51.1419 60.7302C49.3237 63.4467 47.8738 64.4767 46.2685 64.4767C42.5285 64.4767 40.0918 59.42 40.0918 53.0795C40.0918 46.4909 42.681 41.9331 45.9491 41.9331C48.4232 41.9331 47.2754 42.8085 49.0763 42.8085C49.2173 42.8085 48.6419 42.6538 48.7656 42.4963C48.8271 42.434 48.8751 42.3595 48.9066 42.2774H50.2587V47.4304H48.9066C48.4491 45.2128 47.7558 43.5905 46.2339 43.5905C43.0924 43.5905 43.0205 49.7414 43.0205 53.4559C43.0205 56.6451 43.1959 62.2329 46.8151 62.2329C47.8594 62.2329 48.4434 60.8702 49.5423 59.5484C50.0947 59.5017 50.2155 59.5484 50.5924 59.5163L51.1419 60.7302Z" fill="#82592A"/>
<path d="M57.0337 42.2889V43.4152C56.3462 43.602 56.1707 44.384 56.1707 45.1952V50.7712C58.0061 50.8675 58.6793 48.4632 58.9958 47.0568C59.4704 44.9646 59.9307 41.9359 62.0683 41.9359C62.4711 41.9233 62.8694 42.0243 63.219 42.2277V47.2698H61.8525C61.7288 46.552 62.1085 46.2077 61.7921 46.2077C61.2973 46.2077 60.9434 46.9255 60.696 47.4886C59.8502 49.394 59.4417 50.7683 58.173 51.5182V51.7371C61.0671 52.3207 61.6856 54.9205 62.0395 57.1702C62.4624 59.9801 62.566 62.6354 64.1569 62.8543V64.071C63.7485 64.3617 63.2604 64.5148 62.7616 64.5087C59.7955 64.5087 59.6718 61.1064 59.1425 57.5058C58.8951 55.79 58.2967 52.2302 56.1592 52.449V61.2465C56.1592 62.0577 56.3375 62.8397 57.0222 63.0264V64.1498H52.6465V63.0264C53.3542 62.8397 53.5095 62.0577 53.5095 61.2465V45.1981C53.5095 44.3869 53.3513 43.6049 52.6465 43.4182V42.2918L57.0337 42.2889Z" fill="#82592A"/>
<path d="M67.5232 53.2837C67.5232 61.162 68.8293 62.8398 70.823 62.8398C72.8167 62.8398 74.1256 61.1532 74.1256 53.2837C74.1256 45.3207 72.8167 43.6021 70.823 43.6021C68.8293 43.6021 67.5232 45.3207 67.5232 53.2837ZM77.0543 53.2837C77.0543 59.4346 74.4421 64.4942 70.823 64.4942C67.2039 64.4942 64.5917 59.4346 64.5917 53.2837C64.5917 46.9431 67.2585 41.9476 70.823 41.9476C74.3874 41.9476 77.0543 46.9431 77.0543 53.2837Z" fill="#82592A"/>
<path d="M87.2937 42.289C87.7857 42.289 87.265 42.2277 87.3915 41.7288H88.5423V47.3194H87.1902C86.7845 44.5708 86.6867 43.9464 85.0641 43.9464H82.1211V51.848H84.0803C84.9289 51.848 84.9002 51.5037 84.8829 49.8463H86.235V55.4691H84.8829C84.7966 53.5958 84.7333 53.5025 84.4341 53.5025H82.1326V62.4954H86.3702C87.6735 62.4954 88.0734 60.8731 88.3006 58.6234H89.6528V64.1499H78.5566V63.0265C79.3852 62.8689 79.4744 61.8097 79.4744 60.9664V45.4753C79.4744 44.5387 79.3852 43.602 78.5566 43.4153V42.289H87.2937Z" fill="#82592A"/>
<path d="M177.156 60.7507C175.337 63.4672 173.89 64.4973 172.285 64.4973C168.545 64.4973 166.105 59.4376 166.105 53.097C166.105 46.5084 168.695 41.9507 171.966 41.9507C174.437 41.9507 173.292 42.8261 175.09 42.8261C175.234 42.8261 174.658 42.6714 174.782 42.5138C174.837 42.4535 174.882 42.3845 174.914 42.3096H176.264V47.4451H174.914C174.454 45.2304 173.764 43.6051 172.239 43.6051C169.097 43.6051 169.028 49.756 169.028 53.4734C169.028 56.6598 169.204 62.2476 172.823 62.2476C173.853 62.2476 174.575 60.8499 175.53 59.5368C176.229 59.5368 176.218 59.5368 176.6 59.5368L177.156 60.7507Z" fill="#82592A"/>
<path d="M187.394 42.3095C187.889 42.3095 187.008 42.2453 187.132 41.7463H188.648V47.337H187.285C186.879 44.5883 186.781 43.9639 185.159 43.9639H182.221V51.8627H184.181C185.029 51.8627 185 51.5183 184.983 49.8639H186.335V55.4867H184.983C184.894 53.6134 184.834 53.52 184.534 53.52H182.233V62.513H186.47C187.777 62.513 188.174 60.8877 188.401 58.6409H189.753V64.1849H178.654V63.0265C179.483 62.8689 179.572 61.8098 179.572 60.9665V45.4783C179.572 44.5417 179.483 43.605 178.654 43.4183V42.3095H187.394Z" fill="#82592A"/>
<path d="M198.906 42.3096L202.454 60.6398C202.718 62.0112 202.897 62.7932 203.567 63.0441V64.1704H200.282L197.117 47.804H196.904C196.588 50.6139 195.739 56.7356 195.069 59.7031C194.157 63.6102 193.417 64.4856 192.321 64.4856C191.919 64.4856 191.826 64.4856 191.208 64.4856C190.546 63.9924 189.928 62.7348 189.928 62.1513C189.928 61.4626 190.215 60.5347 190.828 60.1729C191.447 60.135 191.717 60.1729 191.95 60.1729C192.144 60.1897 192.329 60.266 192.48 60.3918C192.73 60.5785 192.957 60.8295 193.205 60.8295C193.78 60.8295 193.78 59.6623 194.594 55.0199C194.928 53.1145 195.811 47.9003 195.811 45.5572C195.811 45.245 196.153 43.4038 195.04 43.4038H194.752V42.3096H198.906Z" fill="#82592A"/>
<path d="M207.47 53.2867C207.47 61.165 208.776 62.8428 210.77 62.8428C212.763 62.8428 214.072 61.1563 214.072 53.2867C214.072 45.3238 212.766 43.6051 210.77 43.6051C208.773 43.6051 207.47 45.3238 207.47 53.2867ZM217.001 53.2867C217.001 59.4376 214.389 64.4973 210.77 64.4973C207.15 64.4973 204.547 59.4376 204.547 53.2867C204.547 46.9461 207.214 41.9507 210.778 41.9507C214.343 41.9507 217.01 46.9461 217.01 53.2867" fill="#82592A"/>
<path d="M177.156 60.7507C175.337 63.4672 173.89 64.4973 172.285 64.4973C168.545 64.4973 166.105 59.4376 166.105 53.097C166.105 46.5084 168.695 41.9507 171.966 41.9507C174.437 41.9507 173.292 42.8261 175.09 42.8261C175.234 42.8261 174.658 42.6714 174.782 42.5138C174.837 42.4535 174.882 42.3845 174.914 42.3096H176.264V47.4451H174.914C174.454 45.2304 173.764 43.6051 172.239 43.6051C169.097 43.6051 169.028 49.756 169.028 53.4734C169.028 56.6598 169.204 62.2476 172.823 62.2476C173.853 62.2476 174.575 60.8499 175.53 59.5368C176.229 59.5368 176.218 59.5368 176.6 59.5368L177.156 60.7507Z" fill="#82592A"/>
<path d="M187.394 42.3095C187.889 42.3095 187.008 42.2453 187.132 41.7463H188.648V47.337H187.285C186.879 44.5883 186.781 43.9639 185.159 43.9639H182.221V51.8627H184.181C185.029 51.8627 185 51.5183 184.983 49.8639H186.335V55.4867H184.983C184.894 53.6134 184.834 53.52 184.534 53.52H182.233V62.513H186.47C187.777 62.513 188.174 60.8877 188.401 58.6409H189.753V64.1849H178.654V63.0265C179.483 62.8689 179.572 61.8098 179.572 60.9665V45.4783C179.572 44.5417 179.483 43.605 178.654 43.4183V42.3095H187.394Z" fill="#82592A"/>
<path d="M198.906 42.3096L202.454 60.6398C202.718 62.0112 202.897 62.7932 203.567 63.0441V64.1704H200.282L197.117 47.804H196.904C196.588 50.6139 195.739 56.7356 195.069 59.7031C194.157 63.6102 193.417 64.4856 192.321 64.4856C191.919 64.4856 191.826 64.4856 191.208 64.4856C190.546 63.9924 189.928 62.7348 189.928 62.1513C189.928 61.4626 190.215 60.5347 190.828 60.1729C191.447 60.135 191.717 60.1729 191.95 60.1729C192.144 60.1897 192.329 60.266 192.48 60.3918C192.73 60.5785 192.957 60.8295 193.205 60.8295C193.78 60.8295 193.78 59.6623 194.594 55.0199C194.928 53.1145 195.811 47.9003 195.811 45.5572C195.811 45.245 196.153 43.4038 195.04 43.4038H194.752V42.3096H198.906Z" fill="#82592A"/>
<path d="M207.47 53.2867C207.47 61.165 208.776 62.8428 210.77 62.8428C212.763 62.8428 214.072 61.1563 214.072 53.2867C214.072 45.3238 212.766 43.6051 210.77 43.6051C208.773 43.6051 207.47 45.3238 207.47 53.2867ZM217.001 53.2867C217.001 59.4376 214.389 64.4973 210.77 64.4973C207.15 64.4973 204.547 59.4376 204.547 53.2867C204.547 46.9461 207.214 41.9507 210.778 41.9507C214.343 41.9507 217.01 46.9461 217.01 53.2867" fill="#82592A"/>
<path d="M177.156 60.7507C175.337 63.4672 173.89 64.4973 172.285 64.4973C168.545 64.4973 166.105 59.4376 166.105 53.097C166.105 46.5084 168.695 41.9507 171.966 41.9507C174.437 41.9507 173.292 42.8261 175.09 42.8261C175.234 42.8261 174.658 42.6714 174.782 42.5138C174.837 42.4535 174.882 42.3845 174.914 42.3096H176.264V47.4451H174.914C174.454 45.2304 173.764 43.6051 172.239 43.6051C169.097 43.6051 169.028 49.756 169.028 53.4734C169.028 56.6598 169.204 62.2476 172.823 62.2476C173.853 62.2476 174.575 60.8499 175.53 59.5368C176.229 59.5368 176.218 59.5368 176.6 59.5368L177.156 60.7507Z" fill="#82592A"/>
<path d="M187.394 42.3095C187.889 42.3095 187.008 42.2453 187.132 41.7463H188.648V47.337H187.285C186.879 44.5883 186.781 43.9639 185.159 43.9639H182.221V51.8627H184.181C185.029 51.8627 185 51.5183 184.983 49.8639H186.335V55.4867H184.983C184.894 53.6134 184.834 53.52 184.534 53.52H182.233V62.513H186.47C187.777 62.513 188.174 60.8877 188.401 58.6409H189.753V64.1849H178.654V63.0265C179.483 62.8689 179.572 61.8098 179.572 60.9665V45.4783C179.572 44.5417 179.483 43.605 178.654 43.4183V42.3095H187.394Z" fill="#82592A"/>
<path d="M198.906 42.3096L202.454 60.6398C202.718 62.0112 202.897 62.7932 203.567 63.0441V64.1704H200.282L197.117 47.804H196.904C196.588 50.6139 195.739 56.7356 195.069 59.7031C194.157 63.6102 193.417 64.4856 192.321 64.4856C191.919 64.4856 191.826 64.4856 191.208 64.4856C190.546 63.9924 189.928 62.7348 189.928 62.1513C189.928 61.4626 190.215 60.5347 190.828 60.1729C191.447 60.135 191.717 60.1729 191.95 60.1729C192.144 60.1897 192.329 60.266 192.48 60.3918C192.73 60.5785 192.957 60.8295 193.205 60.8295C193.78 60.8295 193.78 59.6623 194.594 55.0199C194.928 53.1145 195.811 47.9003 195.811 45.5572C195.811 45.245 196.153 43.4038 195.04 43.4038H194.752V42.3096H198.906Z" fill="#82592A"/>
<path d="M207.47 53.2867C207.47 61.165 208.776 62.8428 210.77 62.8428C212.763 62.8428 214.072 61.1563 214.072 53.2867C214.072 45.3238 212.766 43.6051 210.77 43.6051C208.773 43.6051 207.47 45.3238 207.47 53.2867ZM217.001 53.2867C217.001 59.4376 214.389 64.4973 210.77 64.4973C207.15 64.4973 204.547 59.4376 204.547 53.2867C204.547 46.9461 207.214 41.9507 210.778 41.9507C214.343 41.9507 217.01 46.9461 217.01 53.2867" fill="#82592A"/>
<path d="M177.156 60.7507C175.337 63.4672 173.89 64.4973 172.285 64.4973C168.545 64.4973 166.105 59.4376 166.105 53.097C166.105 46.5084 168.695 41.9507 171.966 41.9507C174.437 41.9507 173.292 42.8261 175.09 42.8261C175.234 42.8261 174.658 42.6714 174.782 42.5138C174.837 42.4535 174.882 42.3845 174.914 42.3096H176.264V47.4451H174.914C174.454 45.2304 173.764 43.6051 172.239 43.6051C169.097 43.6051 169.028 49.756 169.028 53.4734C169.028 56.6598 169.204 62.2476 172.823 62.2476C173.853 62.2476 174.575 60.8499 175.53 59.5368C176.229 59.5368 176.218 59.5368 176.6 59.5368L177.156 60.7507Z" fill="#82592A"/>
<path d="M187.394 42.3095C187.889 42.3095 187.008 42.2453 187.132 41.7463H188.648V47.337H187.285C186.879 44.5883 186.781 43.9639 185.159 43.9639H182.221V51.8627H184.181C185.029 51.8627 185 51.5183 184.983 49.8639H186.335V55.4867H184.983C184.894 53.6134 184.834 53.52 184.534 53.52H182.233V62.513H186.47C187.777 62.513 188.174 60.8877 188.401 58.6409H189.753V64.1849H178.654V63.0265C179.483 62.8689 179.572 61.8098 179.572 60.9665V45.4783C179.572 44.5417 179.483 43.605 178.654 43.4183V42.3095H187.394Z" fill="#82592A"/>
<path d="M198.906 42.3096L202.454 60.6398C202.718 62.0112 202.897 62.7932 203.567 63.0441V64.1704H200.282L197.117 47.804H196.904C196.588 50.6139 195.739 56.7356 195.069 59.7031C194.157 63.6102 193.417 64.4856 192.321 64.4856C191.919 64.4856 191.826 64.4856 191.208 64.4856C190.546 63.9924 189.928 62.7348 189.928 62.1513C189.928 61.4626 190.215 60.5347 190.828 60.1729C191.447 60.135 191.717 60.1729 191.95 60.1729C192.144 60.1897 192.329 60.266 192.48 60.3918C192.73 60.5785 192.957 60.8295 193.205 60.8295C193.78 60.8295 193.78 59.6623 194.594 55.0199C194.928 53.1145 195.811 47.9003 195.811 45.5572C195.811 45.245 196.153 43.4038 195.04 43.4038H194.752V42.3096H198.906Z" fill="#82592A"/>
<path d="M207.47 53.2867C207.47 61.165 208.776 62.8428 210.77 62.8428C212.763 62.8428 214.072 61.1563 214.072 53.2867C214.072 45.3238 212.766 43.6051 210.77 43.6051C208.773 43.6051 207.47 45.3238 207.47 53.2867ZM217.001 53.2867C217.001 59.4376 214.389 64.4973 210.77 64.4973C207.15 64.4973 204.547 59.4376 204.547 53.2867C204.547 46.9461 207.214 41.9507 210.778 41.9507C214.343 41.9507 217.01 46.9461 217.01 53.2867" fill="#82592A"/>
<path d="M118.712 23.0047C111.698 20.8834 106.96 22.8034 104.115 25.7417C102.483 27.4283 100.979 29.7626 99.6267 34.1832C99.2756 33.7901 98.8774 33.4431 98.4414 33.1502C99.4138 30.7722 100.68 28.0002 102.61 25.8555C106.474 21.5195 114.083 20.3991 118.712 23.0047Z" fill="white"/>
<path d="M115.615 23.136C125.765 25.6746 120.935 35.8172 117.583 33.0568C121.979 32.552 121.159 24.449 115.615 23.136Z" fill="white"/>
<path d="M99.2117 52.9714C94.8734 56.9135 94.0334 64.1703 91.4269 69.1191C90.5811 70.5167 88.8636 73.5689 85.8429 71.3658C85.3022 70.8955 84.9149 70.2697 84.7324 69.5713C87.7129 71.4709 89.4304 69.1395 90.2963 68.0686C91.1622 66.9978 93.1329 61.1182 95.0086 57.7918C96.5593 55.0402 98.317 53.5579 99.2117 52.9714Z" fill="white"/>
<path d="M97.8541 59.6155C95.5727 63.5342 93.0727 71.9378 100.184 81.9461C97.9375 82.8711 91.2085 80.5601 89.6464 74.7798C90.1786 74.6427 91.1423 74.5084 91.7005 74.2662C94.2033 81.453 98.2281 81.3771 99.6378 81.561C94.5313 76.1395 93.0123 65.3608 97.8541 59.6155Z" fill="white"/>
<path d="M127.702 84.6627C130.564 75.1124 124.713 73.0962 121.623 73.0553C124.155 68.4013 135.659 74.0241 127.702 84.6627Z" fill="white"/>
<path d="M111.238 90.5132C124.826 88.5611 125.289 81.9141 124.722 79.8891C124.155 77.8641 121.621 76.6503 120.205 76.6794C121.589 75.8624 126.48 76.8224 126.376 81.4181C126.241 87.2947 119.104 90.9217 111.238 90.5132Z" fill="white"/>
<path d="M122.4 27.9213C126.033 33.0364 122.144 41.3174 119.166 35.9193C119.166 35.9193 119.9 36.5466 120.625 36.2402C122.1 35.6129 123.398 33.4682 122.4 27.9213Z" fill="white"/>
<path d="M124.707 27.8805C125.334 31.417 126.6 35.9076 129.805 32.9139C127.135 34.154 125.97 30.9122 124.707 27.8805Z" fill="white"/>
<path d="M118.682 50.5439C118.667 50.7219 117.117 49.8056 113.19 49.5693C109.907 49.3738 107.799 50.1529 107.6 49.9311C107.402 49.7094 109.657 48.8515 113.285 49.0791C116.305 49.3709 118.693 50.3659 118.682 50.5439Z" fill="white"/>
<path d="M113.841 0L113.867 1.39475H114.857L114.892 3.5715L113.864 3.59193L113.885 4.60444L114.236 5.09464C114.236 5.09464 113.965 11.5986 113.965 11.6074C114.039 11.6198 114.113 11.6198 114.187 11.6074H114.213C114.518 10.3702 114.851 5.3806 114.851 5.36893C115.262 5.38166 115.669 5.45337 116.06 5.58193C115.743 7.17218 115.001 10.0025 115.153 10.4256C115.191 10.5278 115.519 10.5861 115.519 10.5744C116.025 9.26723 116.529 7.96099 117.032 6.65572C117.228 6.15676 117.409 5.52066 117.745 5.10048C117.953 4.92682 118.216 4.83831 118.485 4.85246C118.954 4.78121 119.433 4.85866 119.857 5.07422L120.254 5.34558L120.683 5.30473C120.865 5.277 121.051 5.29118 121.228 5.34623C121.404 5.40128 121.566 5.49579 121.701 5.62278C121.819 5.74242 121.885 5.93792 122.038 6.01086C122.587 6.26764 122.881 6.17135 123.329 6.68781L123.735 7.3385C124.023 7.55735 124.31 7.39103 124.598 7.7937C124.756 8.00962 124.693 8.35685 124.843 8.55527L125.306 8.84706C125.477 8.97855 125.618 9.14571 125.72 9.33726C125.936 9.69616 125.835 10.1134 125.924 10.5482C125.985 10.84 126.284 11.0588 126.336 11.3944C126.374 11.6822 126.349 11.9751 126.264 12.2522C126.198 12.3981 126.129 12.544 126.065 12.6928C126.022 13.0226 126.154 13.3902 126.114 13.7491C126.062 14.1956 125.76 14.4144 125.591 14.785C125.522 14.9892 125.455 15.1935 125.389 15.3977C125.136 15.8996 124.641 15.958 124.198 16.2001C123.77 16.4606 123.326 16.6945 122.869 16.9004C122.561 17.0201 122.354 17.0901 121.744 17.3148C121.58 17.6445 121.701 21.108 121.641 21.3327C121.577 21.6245 118.537 21.8609 118.255 21.8229C113.485 20.0955 109.126 21.4874 107.36 22.1147C106.842 22.1497 104.371 21.6624 104.394 21.2802C104.394 19.5791 104.394 19.6141 104.394 17.3381C103.28 16.9238 102.731 16.6874 101.842 16.3052C100.953 15.9229 99.9519 14.3064 99.8598 13.7987C99.7965 13.4457 99.9605 13.0809 99.903 12.7454C99.8368 12.3573 99.5693 12.0538 99.6354 11.5782C99.6958 11.1493 99.9979 10.9713 100.067 10.6299C100.159 10.1718 100.067 9.75452 100.291 9.38103C100.516 9.00754 100.956 8.92 101.137 8.63989C101.318 8.35977 101.229 8.03005 101.454 7.77911C101.678 7.52817 102.061 7.60695 102.256 7.4027L102.509 6.94751C102.649 6.74625 102.824 6.57227 103.024 6.43396C103.312 6.23554 103.709 6.25888 103.98 6.0663L104.195 5.77451C104.378 5.56239 104.631 5.42454 104.906 5.38643C105.194 5.34266 105.458 5.50023 105.703 5.50023V5.46522C105.937 5.27566 106.197 5.12046 106.474 5.00419C106.888 4.88456 108.554 5.11799 108.729 5.45938C109.169 6.29682 110.579 10.767 110.642 10.767C110.732 10.7174 110.855 10.7145 110.884 10.5949C110.956 10.3264 110.496 8.14676 109.963 5.63445C110.33 5.50734 110.707 5.41742 111.091 5.36601C111.12 5.71616 111.606 10.8283 111.724 11.6015C111.764 11.6015 111.874 11.5432 112.041 11.4761C112.006 10.2593 111.753 5.08297 111.753 5.08297L112.121 4.5986L112.089 3.56567H111.129L111.094 1.40059H112.11L112.087 0H113.841Z" fill="#D9924E"/>
<path d="M113.36 1.81491L114.14 1.83534L114.148 2.88578L113.337 2.89161L113.369 4.18424L112.632 4.17549L112.621 2.89161L111.858 2.8887L111.807 1.86743L112.632 1.84701L112.589 0.668178L113.369 0.659424L113.36 1.81491Z" fill="white"/>
<path d="M120.156 6.19189C120.821 6.21232 121.203 6.85134 120.772 7.3999L120.358 7.72963C120.217 7.7909 119.894 7.80257 119.8 7.93096C119.636 8.15564 119.871 8.87052 119.699 9.21483C119.588 9.43507 119.396 9.60185 119.164 9.67878L118.902 9.77799L118.847 9.86844C118.652 10.3324 119.319 10.7438 118.919 11.2369C118.855 11.3203 118.773 11.3874 118.679 11.433C118.585 11.4786 118.482 11.5014 118.378 11.4995L118.151 11.4558C117.978 11.3916 117.711 11.1406 117.711 10.9306C117.711 10.5104 118.025 10.2011 118.183 9.85677C118.62 8.90262 119.02 7.9047 119.546 6.98556L119.739 6.50411C119.785 6.42895 119.846 6.36424 119.918 6.31402C119.989 6.26381 120.071 6.22919 120.156 6.21232V6.19189Z" fill="white"/>
<path d="M105.55 5.91759C105.757 5.90501 105.961 5.96818 106.126 6.09558C106.286 6.28569 106.407 6.50714 106.479 6.74627C106.73 7.24231 107.63 8.32485 107.078 8.91135C106.963 9.03098 106.712 9.00764 106.543 8.99013C106.43 8.97241 106.322 8.93213 106.224 8.87164C106.127 8.81115 106.042 8.73164 105.975 8.63773C105.908 8.54382 105.86 8.43737 105.834 8.32456C105.808 8.21174 105.805 8.09481 105.824 7.98054C105.872 7.86674 105.924 7.75586 105.976 7.64206H106.005V7.61288C105.701 7.57091 105.419 7.43189 105.199 7.21605C104.932 6.88341 104.981 5.94677 105.559 5.94677L105.55 5.91759Z" fill="white"/>
<path d="M103.795 6.72583C104.078 6.74306 104.344 6.86284 104.547 7.06325C104.749 7.26366 104.873 7.53128 104.897 7.81712L105.185 8.33651C105.317 8.66623 105.455 8.99595 105.59 9.32567C105.826 9.76141 106.06 10.1962 106.292 10.63C106.314 10.7086 106.317 10.7915 106.3 10.8714C106.283 10.9513 106.247 11.0257 106.195 11.0881C105.76 11.4411 104.27 10.8255 104.814 9.99679L104.989 9.81296V9.75169C104.532 9.67874 104.005 9.50367 104.086 8.90842C104.086 8.84714 104.126 8.63413 104.184 8.63413C104.037 8.44739 103.824 8.42988 103.651 8.29566C103.283 8.00387 103.076 7.4553 103.364 7.0468C103.411 6.97046 103.474 6.90505 103.547 6.85479C103.621 6.80453 103.705 6.77054 103.792 6.75501L103.795 6.72583Z" fill="white"/>
<path d="M121.691 7.11377C122.241 7.13128 122.738 7.69735 122.315 8.18464C122.008 8.54937 121.642 8.33637 121.337 8.55521L121.3 8.59022C121.185 8.74487 121.435 9.44225 121.237 9.80407C121.16 9.9608 121.034 10.0878 120.88 10.1659C120.756 10.2242 120.422 10.1951 120.356 10.3264C120.189 10.6386 121.096 11.2017 120.356 11.7561C120.201 11.8541 120.014 11.8856 119.836 11.8437L119.749 11.8174C119.611 11.7526 119.497 11.6429 119.427 11.5055C119.357 11.3682 119.333 11.211 119.361 11.0588C119.429 10.8686 119.526 10.6904 119.649 10.5306C120.051 9.69027 120.512 8.88493 120.995 8.07667C121.098 7.85492 121.202 7.63607 121.306 7.41139C121.351 7.34168 121.41 7.28197 121.479 7.23585C121.547 7.18972 121.624 7.15813 121.705 7.14295L121.691 7.11377Z" fill="white"/>
<path d="M102.301 8.06503C102.411 8.05933 102.521 8.07658 102.625 8.11572C102.728 8.15486 102.823 8.21507 102.902 8.29263C103.194 8.64849 103.439 9.04073 103.633 9.45978C103.705 9.65236 103.78 9.84203 103.852 10.0434L104.139 10.411L104.838 11.4848C104.948 11.6249 105.126 11.7007 105.192 11.8816C105.24 12.0233 105.244 12.1763 105.204 12.3204C105.165 12.4646 105.083 12.5934 104.971 12.6899C104.395 13.0896 103.731 12.3018 104.128 11.7591L104.246 11.6453V11.5869H104.217V11.5577C104.185 11.5577 104.159 11.5577 104.159 11.5869C103.711 11.7795 103.121 11.6044 103.15 11.0033C103.15 10.8487 103.302 10.7116 103.302 10.5978H103.334V10.5686C102.793 10.5336 102.243 10.3818 102.433 9.69322C102.448 9.64361 102.502 9.48313 102.56 9.48313V9.42769C102.432 9.41336 102.307 9.37351 102.194 9.31042C102.081 9.24733 101.982 9.16225 101.901 9.06003C101.705 8.75074 101.864 8.09421 102.304 8.09421L102.301 8.06503Z" fill="white"/>
<path d="M101.101 9.70498C101.326 9.69264 101.547 9.76428 101.723 9.90631C101.896 10.1375 102.043 10.3881 102.16 10.6533L102.836 11.6395C103.092 11.9984 103.475 12.3107 103.564 12.7542C103.6 12.9557 103.561 13.1636 103.454 13.3378L103.276 13.542C103.121 13.542 102.965 13.542 102.807 13.5245C102.642 13.502 102.492 13.4176 102.385 13.288C102.279 13.1583 102.224 12.9928 102.232 12.8242C102.232 12.7279 102.312 12.407 102.422 12.407V12.3778H102.393V12.3486C102.208 12.4137 102.009 12.4268 101.818 12.3865C101.652 12.1973 101.503 11.9942 101.372 11.7796C101.372 11.7154 101.397 11.4528 101.458 11.4528V11.3915C101.107 11.3594 100.644 11.1727 100.517 10.8079C100.391 10.4432 100.667 9.71665 101.107 9.71665L101.101 9.70498Z" fill="white"/>
<path d="M107.088 9.29346C107.995 9.32264 108.4 10.4285 107.462 10.697C106.384 11.0033 106.271 9.32555 107.088 9.32555V9.29346Z" fill="white"/>
<path d="M112.989 11.7562C114.376 11.9634 114.35 13.9621 113.245 13.9621V14.0205C113.651 14.1109 113.962 14.4552 114.313 14.6537C114.802 14.9455 115.34 14.9163 115.953 14.9163C116.358 14.712 117.123 14.5515 117.417 14.2072C117.592 13.9971 117.359 13.7987 117.351 13.574C117.343 13.3277 117.428 13.0876 117.588 12.9023C117.748 12.717 117.972 12.6004 118.214 12.5761C119.183 12.5615 119.474 13.8804 118.614 14.1722C118.451 14.2071 118.284 14.217 118.119 14.2014C118.268 14.7208 119.431 15.5816 119.94 15.7683C120.351 15.8931 120.78 15.9483 121.209 15.9317C121.26 15.8996 121.905 15.5436 121.911 15.5436C121.951 14.9221 122.457 14.286 123.188 14.5486C123.312 14.5924 123.453 14.6187 123.524 14.7295C123.584 14.8094 123.626 14.9007 123.65 14.9977C123.674 15.0948 123.678 15.1957 123.662 15.2944C123.646 15.3931 123.611 15.4875 123.558 15.5719C123.505 15.6564 123.436 15.7291 123.355 15.7858C123.202 15.8997 123.022 15.9702 122.834 15.9901C122.1 15.6457 121.807 16.2293 121.145 16.2498C120.519 16.2931 119.891 16.1861 119.313 15.9375C118.844 15.6778 118.476 15.2752 118.012 14.9892C117.915 14.9279 117.771 14.785 117.636 14.7821C117.434 14.7821 116.959 15.1264 116.772 15.2227C116.237 15.491 115.643 15.6155 115.046 15.5845C114.581 15.5129 114.129 15.3744 113.703 15.1731C113.513 15.0884 113.289 14.7879 113.053 14.7937C112.817 14.7996 112.558 15.0534 112.374 15.1526C111.724 15.494 110.789 15.9259 109.989 15.5961C109.517 15.3919 109.051 15.1847 108.582 14.9776C108.553 14.9776 108.432 14.9104 108.432 14.9571C108.286 15.0802 108.16 15.2259 108.058 15.389L107.52 15.8909C106.945 16.3548 105.357 16.7896 104.488 16.6028L103.769 16.2702C103.63 16.2668 103.492 16.2885 103.36 16.3344C103.114 16.3531 102.868 16.2907 102.659 16.1564C102.567 16.1182 102.485 16.0596 102.419 15.9849C102.353 15.9102 102.304 15.8213 102.276 15.7248C102.249 15.6284 102.243 15.5268 102.259 15.4278C102.275 15.3287 102.314 15.2347 102.371 15.1526C102.748 14.6974 103.522 14.9192 103.809 15.3335C103.939 15.5144 103.898 15.7654 104.097 15.9171C104.416 16.1119 104.783 16.2129 105.156 16.2089L105.443 16.1797L105.763 16.1476C106.626 15.7479 107.037 15.7887 107.63 14.9805C107.768 14.8423 107.852 14.6576 107.866 14.4611C107.699 14.453 107.54 14.388 107.415 14.2768C107.289 14.1656 107.205 14.0147 107.174 13.8484C107.144 13.6822 107.17 13.5105 107.248 13.3611C107.326 13.2117 107.451 13.0935 107.604 13.0255C107.727 12.9607 107.865 12.9278 108.004 12.9297C108.143 12.9315 108.279 12.9681 108.401 13.0362C108.523 13.1043 108.626 13.2018 108.702 13.32C108.777 13.4383 108.823 13.5736 108.835 13.7141C108.835 13.8804 108.757 14.0059 108.757 14.1605C108.737 14.178 108.723 14.1926 108.757 14.1926C109.393 14.7349 110.191 15.0434 111.022 15.068C111.295 14.9075 112.963 14.3444 112.963 13.9942H112.995V13.965C111.657 13.7287 111.844 11.8175 112.995 11.8175L112.989 11.7562Z" fill="white"/>
<path d="M104.281 12.8562C104.281 12.8729 104.314 12.9285 104.314 12.8868L104.281 12.8562Z" fill="white"/>
<path d="M121.168 14.3298C121.162 14.4482 121.121 14.562 121.051 14.6572C120.981 14.7523 120.885 14.8247 120.775 14.8652C120.665 14.9057 120.546 14.9127 120.432 14.8852C120.319 14.8577 120.215 14.7971 120.135 14.7107C120.055 14.6243 120.002 14.5159 119.981 14.3991C119.961 14.2822 119.975 14.1619 120.022 14.0531C120.069 13.9443 120.146 13.8517 120.243 13.7868C120.341 13.7219 120.456 13.6875 120.573 13.6878C120.654 13.6901 120.733 13.7085 120.807 13.7421C120.88 13.7756 120.947 13.8236 121.002 13.8832C121.058 13.9429 121.101 14.013 121.129 14.0897C121.158 14.1663 121.171 14.2479 121.168 14.3298Z" fill="white"/>
<path d="M104.404 21.2482C104.563 20.5625 108.36 20.0139 113.018 20.0139C117.675 20.0139 121.473 20.5625 121.634 21.2482V20.5917C121.634 20.5917 121.634 20.5917 121.634 20.5742C121.634 20.5567 121.634 20.5742 121.634 20.5567V20.5304C121.473 19.8447 117.678 19.2961 113.018 19.2961C108.357 19.2961 104.568 19.8418 104.41 20.5304V20.5596C104.41 20.5596 104.41 20.5596 104.41 20.5742C104.41 20.5888 104.41 20.5742 104.41 20.5917L104.404 21.2482Z" fill="white"/>
<path d="M104.404 18.6745C104.563 17.9888 108.36 17.4402 113.018 17.4402C117.675 17.4402 121.473 17.9888 121.634 18.6745V18.0034C121.634 18.0034 121.634 18.0034 121.634 17.9859V17.9567C121.473 17.271 117.678 16.7224 113.018 16.7224C108.357 16.7224 104.563 17.271 104.404 17.9567V17.9859C104.404 17.9859 104.404 17.9859 104.404 18.0034V18.6745Z" fill="white"/>
<path d="M108.432 18.6104C108.432 18.7259 108.398 18.8387 108.335 18.9347C108.272 19.0306 108.182 19.1054 108.077 19.1496C107.972 19.1938 107.856 19.2053 107.744 19.1828C107.633 19.1603 107.53 19.1047 107.45 19.0231C107.369 18.9415 107.315 18.8375 107.292 18.7243C107.27 18.6111 107.282 18.4937 107.325 18.3871C107.369 18.2805 107.442 18.1893 107.537 18.1252C107.632 18.0611 107.743 18.0269 107.857 18.0269C108.009 18.0269 108.156 18.0883 108.263 18.1978C108.371 18.3072 108.432 18.4557 108.432 18.6104Z" fill="white"/>
<path d="M111.094 19.3223C111.44 19.3223 111.721 18.9213 111.721 18.4266C111.721 17.9318 111.44 17.5308 111.094 17.5308C110.748 17.5308 110.467 17.9318 110.467 18.4266C110.467 18.9213 110.748 19.3223 111.094 19.3223Z" fill="white"/>
<path d="M112.866 18.4265C112.866 18.9225 112.578 19.3223 112.238 19.3223C111.899 19.3223 111.623 18.9225 111.623 18.4265C111.623 17.9305 111.91 17.5278 112.25 17.5278C112.589 17.5278 112.866 17.9305 112.866 18.4265Z" fill="white"/>
<path d="M115.011 18.3565C115.011 18.8525 114.724 19.2552 114.384 19.2552C114.045 19.2552 113.76 18.8525 113.76 18.3565C113.76 17.8604 114.047 17.4607 114.384 17.4607C114.721 17.4607 115.011 17.8604 115.011 18.3565Z" fill="white"/>
<path d="M113.962 18.3565C113.962 18.8525 113.675 19.2552 113.335 19.2552C112.996 19.2552 112.711 18.8525 112.711 18.3565C112.711 17.8604 112.999 17.4607 113.335 17.4607C113.672 17.4607 113.962 17.8604 113.962 18.3565Z" fill="white"/>
<path d="M109.965 18.4937C109.965 18.6092 109.931 18.722 109.868 18.818C109.805 18.9139 109.715 18.9887 109.61 19.0329C109.505 19.0771 109.389 19.0886 109.278 19.0661C109.166 19.0436 109.063 18.988 108.983 18.9064C108.903 18.8248 108.848 18.7208 108.826 18.6076C108.803 18.4944 108.815 18.377 108.858 18.2704C108.902 18.1638 108.976 18.0726 109.07 18.0085C109.165 17.9444 109.276 17.9102 109.39 17.9102C109.542 17.9102 109.689 17.9716 109.797 18.0811C109.905 18.1905 109.965 18.339 109.965 18.4937Z" fill="white"/>
<path d="M116.62 18.4266C116.62 18.542 116.586 18.6548 116.523 18.7508C116.459 18.8468 116.369 18.9216 116.264 18.9658C116.159 19.0099 116.043 19.0215 115.932 18.999C115.82 18.9764 115.718 18.9209 115.637 18.8392C115.557 18.7576 115.502 18.6536 115.48 18.5404C115.458 18.4272 115.469 18.3099 115.513 18.2033C115.556 18.0966 115.63 18.0055 115.724 17.9414C115.819 17.8772 115.93 17.843 116.044 17.843C116.197 17.843 116.343 17.9045 116.451 18.0139C116.559 18.1234 116.62 18.2718 116.62 18.4266Z" fill="white"/>
<path d="M106.942 18.8292C106.942 18.9446 106.908 19.0574 106.845 19.1534C106.782 19.2494 106.692 19.3242 106.587 19.3683C106.481 19.4125 106.366 19.4241 106.254 19.4016C106.143 19.379 106.04 19.3235 105.96 19.2418C105.879 19.1602 105.824 19.0562 105.802 18.943C105.78 18.8298 105.791 18.7125 105.835 18.6059C105.878 18.4992 105.952 18.4081 106.047 18.344C106.141 18.2798 106.253 18.2456 106.366 18.2456C106.519 18.2456 106.665 18.3071 106.773 18.4165C106.881 18.526 106.942 18.6744 106.942 18.8292Z" fill="white"/>
<path d="M106.157 14.6712C106.157 14.7866 106.123 14.8994 106.06 14.9954C105.997 15.0914 105.907 15.1662 105.802 15.2103C105.696 15.2545 105.581 15.2661 105.469 15.2435C105.358 15.221 105.255 15.1654 105.175 15.0838C105.094 15.0022 105.039 14.8982 105.017 14.785C104.995 14.6718 105.006 14.5545 105.05 14.4478C105.093 14.3412 105.167 14.2501 105.262 14.1859C105.356 14.1218 105.468 14.0876 105.581 14.0876C105.734 14.0876 105.88 14.1491 105.988 14.2585C106.096 14.368 106.157 14.5164 106.157 14.6712Z" fill="white"/>
<path d="M110.961 13.0401C110.961 13.1555 110.927 13.2683 110.864 13.3643C110.801 13.4603 110.711 13.5351 110.606 13.5792C110.501 13.6234 110.385 13.635 110.274 13.6124C110.162 13.5899 110.059 13.5343 109.979 13.4527C109.898 13.3711 109.844 13.2671 109.821 13.1539C109.799 13.0407 109.811 12.9234 109.854 12.8167C109.898 12.7101 109.972 12.619 110.066 12.5548C110.161 12.4907 110.272 12.4565 110.386 12.4565C110.538 12.4565 110.685 12.518 110.793 12.6274C110.901 12.7369 110.961 12.8853 110.961 13.0401Z" fill="white"/>
<path d="M116.272 12.8708C116.272 12.9863 116.238 13.0991 116.175 13.1951C116.112 13.291 116.022 13.3658 115.917 13.41C115.812 13.4542 115.696 13.4657 115.584 13.4432C115.473 13.4207 115.37 13.3651 115.29 13.2835C115.209 13.2019 115.154 13.0979 115.132 12.9847C115.11 12.8715 115.121 12.7541 115.165 12.6475C115.208 12.5409 115.282 12.4497 115.377 12.3856C115.471 12.3215 115.583 12.2873 115.696 12.2873C115.849 12.2873 115.995 12.3487 116.103 12.4582C116.211 12.5676 116.272 12.7161 116.272 12.8708Z" fill="white"/>
<path d="M113.637 8.9667C113.637 9.09078 113.601 9.21207 113.533 9.31524C113.465 9.4184 113.369 9.49881 113.256 9.54629C113.143 9.59378 113.018 9.6062 112.898 9.582C112.778 9.55779 112.668 9.49804 112.582 9.4103C112.495 9.32257 112.436 9.21079 112.412 9.08909C112.388 8.9674 112.401 8.84126 112.447 8.72663C112.494 8.61199 112.574 8.51402 112.675 8.44508C112.777 8.37615 112.897 8.33936 113.019 8.33936C113.183 8.33936 113.34 8.40545 113.456 8.5231C113.572 8.64075 113.637 8.80032 113.637 8.9667Z" fill="white"/>
<path d="M112.975 8.15552C113.321 8.15552 113.602 7.87072 113.602 7.51941C113.602 7.1681 113.321 6.88331 112.975 6.88331C112.629 6.88331 112.348 7.1681 112.348 7.51941C112.348 7.87072 112.629 8.15552 112.975 8.15552Z" fill="white"/>
<path d="M113.609 10.4082C113.609 10.5299 113.573 10.649 113.506 10.7502C113.44 10.8515 113.345 10.9304 113.234 10.977C113.123 11.0236 113.001 11.0358 112.883 11.012C112.765 10.9882 112.657 10.9296 112.572 10.8435C112.487 10.7574 112.43 10.6477 112.406 10.5283C112.383 10.4088 112.395 10.285 112.441 10.1725C112.487 10.06 112.564 9.96389 112.664 9.89624C112.764 9.82859 112.881 9.79248 113.002 9.79248C113.081 9.79248 113.16 9.80841 113.234 9.83935C113.308 9.87029 113.374 9.91564 113.431 9.97281C113.487 10.03 113.532 10.0978 113.562 10.1725C113.593 10.2472 113.609 10.3273 113.609 10.4082Z" fill="white"/>
<path d="M101.537 13.0751C101.538 13.1961 101.503 13.3147 101.438 13.4158C101.372 13.5169 101.279 13.596 101.169 13.6429C101.059 13.6899 100.938 13.7026 100.82 13.6795C100.703 13.6564 100.596 13.5985 100.511 13.5132C100.427 13.4278 100.369 13.3189 100.346 13.2003C100.322 13.0816 100.334 12.9586 100.38 12.8469C100.426 12.7352 100.503 12.6398 100.603 12.5729C100.702 12.5059 100.819 12.4705 100.938 12.4711C101.096 12.4711 101.248 12.5346 101.36 12.6478C101.472 12.761 101.536 12.9146 101.537 13.0751Z" fill="white"/>
<path d="M123.751 8.87324C123.751 8.98346 123.719 9.09122 123.659 9.18287C123.598 9.27452 123.513 9.34595 123.412 9.38813C123.312 9.43031 123.201 9.44135 123.095 9.41985C122.988 9.39834 122.89 9.34526 122.813 9.26732C122.736 9.18938 122.684 9.09007 122.663 8.98196C122.642 8.87385 122.653 8.7618 122.694 8.65996C122.736 8.55812 122.806 8.47108 122.897 8.40984C122.987 8.3486 123.093 8.31592 123.202 8.31592C123.348 8.31592 123.487 8.37464 123.59 8.47915C123.693 8.58367 123.751 8.72543 123.751 8.87324Z" fill="white"/>
<path d="M122.814 10.3235C122.814 10.4339 122.782 10.5417 122.721 10.6334C122.661 10.7252 122.575 10.7966 122.474 10.8387C122.373 10.8808 122.263 10.8916 122.156 10.8699C122.05 10.8482 121.952 10.7948 121.875 10.7165C121.798 10.6383 121.746 10.5387 121.725 10.4304C121.704 10.3221 121.716 10.21 121.758 10.1082C121.8 10.0064 121.871 9.91958 121.961 9.8587C122.052 9.79781 122.159 9.76562 122.267 9.76619C122.413 9.76696 122.552 9.82602 122.654 9.93045C122.756 10.0349 122.814 10.1762 122.814 10.3235Z" fill="white"/>
<path d="M113.8 5.86503C113.795 6.02364 113.743 6.17706 113.652 6.30614C113.561 6.43522 113.434 6.53426 113.288 6.59089C113.142 6.64753 112.983 6.65926 112.83 6.62461C112.677 6.58997 112.538 6.5105 112.43 6.3961C112.321 6.28169 112.248 6.13743 112.22 5.98131C112.192 5.82518 112.21 5.6641 112.271 5.51816C112.333 5.37222 112.435 5.24787 112.566 5.16063C112.697 5.07339 112.85 5.02712 113.006 5.02759C113.221 5.03219 113.425 5.12292 113.574 5.27989C113.723 5.43686 113.804 5.64728 113.8 5.86503Z" fill="white"/>
<path d="M108.223 6.17708C108.223 6.2925 108.189 6.40533 108.126 6.5013C108.063 6.59727 107.973 6.67207 107.868 6.71624C107.763 6.76041 107.647 6.77197 107.535 6.74945C107.424 6.72693 107.321 6.67135 107.241 6.58974C107.16 6.50812 107.106 6.40414 107.083 6.29093C107.061 6.17773 107.073 6.06039 107.116 5.95376C107.16 5.84712 107.233 5.75598 107.328 5.69186C107.423 5.62773 107.534 5.59351 107.648 5.59351C107.8 5.59351 107.947 5.65499 108.054 5.76443C108.162 5.87387 108.223 6.02231 108.223 6.17708Z" fill="white"/>
<path d="M118.528 7.53106C118.524 7.65549 118.485 7.77614 118.414 7.87794C118.343 7.97974 118.245 8.05817 118.131 8.10342C118.016 8.14867 117.891 8.15873 117.771 8.13236C117.651 8.10599 117.542 8.04435 117.456 7.95514C117.371 7.86593 117.313 7.75311 117.29 7.63078C117.267 7.50846 117.281 7.38206 117.328 7.26737C117.376 7.15269 117.456 7.05482 117.558 6.98599C117.661 6.91715 117.781 6.88042 117.903 6.88037C117.986 6.88151 118.069 6.89925 118.145 6.93257C118.221 6.96589 118.29 7.01414 118.348 7.07456C118.406 7.13499 118.452 7.2064 118.483 7.28473C118.514 7.36305 118.529 7.44676 118.528 7.53106Z" fill="white"/>
<path d="M119.232 6.12758C119.222 6.2525 119.176 6.37173 119.101 6.47071C119.025 6.56968 118.922 6.64409 118.805 6.68486C118.688 6.72562 118.562 6.73096 118.443 6.70022C118.323 6.66948 118.214 6.604 118.131 6.51179C118.047 6.41957 117.992 6.30462 117.971 6.18099C117.951 6.05736 117.967 5.9304 118.016 5.81566C118.066 5.70091 118.148 5.60334 118.251 5.53489C118.355 5.46643 118.476 5.43005 118.599 5.4302C118.686 5.43358 118.771 5.45433 118.85 5.49125C118.929 5.52818 119 5.58056 119.059 5.64537C119.118 5.71018 119.163 5.78615 119.193 5.86891C119.223 5.95166 119.236 6.03957 119.232 6.12758Z" fill="white"/>
<path d="M109.957 10.2475C109.957 10.373 109.921 10.4956 109.852 10.6C109.784 10.7044 109.686 10.7859 109.572 10.8343C109.458 10.8827 109.333 10.8958 109.211 10.872C109.09 10.8481 108.978 10.7884 108.89 10.7003C108.802 10.6122 108.741 10.4997 108.716 10.3769C108.691 10.2541 108.702 10.1265 108.748 10.0101C108.795 9.89374 108.874 9.7938 108.976 9.72287C109.078 9.65193 109.198 9.61316 109.322 9.61144C109.405 9.60988 109.488 9.6252 109.565 9.65651C109.642 9.68782 109.712 9.73447 109.772 9.79373C109.831 9.853 109.878 9.92367 109.91 10.0016C109.942 10.0795 109.958 10.1631 109.957 10.2475Z" fill="white"/>
<path d="M109.346 8.85002C109.347 8.97422 109.311 9.0958 109.244 9.19935C109.176 9.3029 109.08 9.38376 108.967 9.43169C108.854 9.47962 108.729 9.49246 108.609 9.46859C108.489 9.44471 108.378 9.38519 108.292 9.29757C108.205 9.20996 108.146 9.09818 108.121 8.97641C108.097 8.85463 108.109 8.72835 108.156 8.61354C108.203 8.49874 108.282 8.40059 108.384 8.33153C108.486 8.26246 108.605 8.22559 108.728 8.22559C108.809 8.22521 108.889 8.24108 108.964 8.27228C109.039 8.30349 109.108 8.34943 109.165 8.40745C109.223 8.46547 109.268 8.53444 109.299 8.61039C109.33 8.68634 109.346 8.76777 109.346 8.85002Z" fill="white"/>
<path d="M108.798 7.51655C108.798 7.63832 108.762 7.75736 108.696 7.85861C108.629 7.95985 108.534 8.03877 108.423 8.08536C108.312 8.13196 108.19 8.14416 108.073 8.1204C107.955 8.09664 107.847 8.03801 107.762 7.9519C107.677 7.8658 107.619 7.7561 107.596 7.63667C107.572 7.51724 107.584 7.39345 107.63 7.28095C107.676 7.16845 107.754 7.07229 107.854 7.00464C107.954 6.93699 108.071 6.90088 108.191 6.90088C108.352 6.90088 108.506 6.96574 108.62 7.08121C108.734 7.19667 108.798 7.35327 108.798 7.51655Z" fill="white"/>
<path d="M107.14 12.1152C107.14 12.2243 107.108 12.3309 107.049 12.4216C106.989 12.5123 106.904 12.583 106.805 12.6247C106.705 12.6664 106.596 12.6774 106.49 12.6561C106.385 12.6348 106.288 12.5823 106.212 12.5052C106.136 12.428 106.084 12.3298 106.063 12.2228C106.042 12.1158 106.053 12.0049 106.094 11.9042C106.135 11.8034 106.205 11.7173 106.294 11.6567C106.384 11.5961 106.489 11.5637 106.596 11.5637C106.741 11.5637 106.879 11.6218 106.981 11.7252C107.083 11.8287 107.14 11.9689 107.14 12.1152Z" fill="white"/>
<path d="M108.531 11.4673C108.531 11.5766 108.5 11.6836 108.44 11.7748C108.381 11.8659 108.296 11.937 108.196 11.9791C108.097 12.0212 107.987 12.0324 107.882 12.0112C107.776 11.99 107.679 11.9374 107.603 11.8601C107.526 11.7828 107.475 11.6843 107.454 11.5771C107.433 11.4698 107.444 11.3587 107.485 11.2578C107.527 11.1569 107.597 11.0708 107.687 11.0104C107.777 10.9501 107.882 10.9181 107.99 10.9187C108.133 10.9187 108.271 10.9765 108.372 11.0794C108.474 11.1823 108.531 11.3218 108.531 11.4673Z" fill="white"/>
<path d="M117.356 10.341C117.346 10.4613 117.302 10.576 117.228 10.6711C117.155 10.7663 117.056 10.8377 116.944 10.8767C116.831 10.9157 116.71 10.9206 116.594 10.8907C116.479 10.8609 116.375 10.7977 116.294 10.7087C116.214 10.6198 116.16 10.509 116.141 10.3899C116.122 10.2708 116.137 10.1486 116.185 10.0381C116.233 9.92761 116.311 9.83368 116.411 9.76778C116.511 9.70188 116.627 9.66686 116.746 9.66699C116.915 9.67457 117.074 9.74978 117.189 9.87614C117.303 10.0025 117.363 10.1697 117.356 10.341Z" fill="white"/>
<path d="M118.056 8.9841C118.055 9.11543 118.015 9.24347 117.943 9.35211C117.87 9.46074 117.767 9.5451 117.647 9.59456C117.527 9.64402 117.395 9.65637 117.269 9.63004C117.142 9.60372 117.025 9.5399 116.934 9.44663C116.843 9.35336 116.781 9.23481 116.756 9.10593C116.731 8.97704 116.745 8.84357 116.795 8.72235C116.844 8.60112 116.928 8.49756 117.036 8.42472C117.144 8.35187 117.271 8.31299 117.4 8.31299C117.487 8.31337 117.572 8.33103 117.652 8.36497C117.732 8.3989 117.804 8.44844 117.865 8.51076C117.926 8.57308 117.974 8.64696 118.007 8.72817C118.04 8.80939 118.056 8.89635 118.056 8.9841Z" fill="white"/>
<path d="M4.39587 42.289V43.4153C3.54719 43.6342 3.53281 44.8743 3.53281 45.1953V62.4955H8.75434V45.1953C8.75434 44.4454 8.57885 43.6342 7.87401 43.4153V42.289H12.267V43.4153C11.5622 43.6021 11.4039 44.3841 11.4039 45.1953V60.9665C11.4039 62.1336 11.5794 62.37 11.916 62.869C12.5709 63.7745 12.9181 64.8711 12.9057 65.994C12.9057 67.9286 11.8441 70.6451 9.67494 70.6451C8.65077 70.6451 7.25549 69.9594 6.12487 69.1162C5.5495 68.7077 4.04201 67.7739 3.53568 67.7739C3.46516 67.7746 3.39551 67.7898 3.331 67.8187C3.26649 67.8476 3.20848 67.8896 3.16053 67.9421C3.11259 67.9945 3.07571 68.0563 3.05216 68.1238C3.02861 68.1912 3.01889 68.2628 3.0236 68.3342C3.0236 68.6464 3.13004 68.6785 3.23649 68.6785H3.4839C3.83775 68.7398 3.96146 69.1774 3.96146 69.583C3.96146 70.1666 3.67377 70.6772 3.20197 70.6772C2.62659 70.6772 2.31876 69.8661 2.31876 68.9265C2.31876 67.3975 3.32567 65.8073 5.33661 65.8073C8.24801 65.8073 8.56734 68.1416 10.7394 68.1416C11.2515 68.1416 11.9563 67.6105 11.9563 66.207C11.9563 64.9552 11.3205 64.1441 10.5984 64.1441H0V63.0265C0.371117 62.9652 0.883201 62.5567 0.883201 61.2466V45.1982C0.883201 44.104 0.477562 43.4795 0 43.4183V42.292L4.39587 42.289Z" fill="#D9924E"/>
<path d="M16.4692 56.4672V56.6073H21.0722V56.5139L18.7822 47.9119H18.6988L16.4692 56.4672ZM14.2626 60.6223L17.8357 47.2875C17.9878 46.6644 18.0593 46.0239 18.0486 45.3821C18.0486 44.6643 17.4301 44.7256 17.2172 44.7577V43.6343C17.6975 43.5648 18.1529 43.3739 18.5415 43.0792C18.9301 42.7845 19.2394 42.3954 19.441 41.9478H20.0797L24.6942 59.0583C25.5055 62.0579 25.9629 62.6823 26.3541 63.0266V64.15H21.3052V63.0266C22.0101 63.0587 22.2747 61.9645 22.2747 61.2467C22.2491 60.9198 22.1961 60.5958 22.1165 60.278L21.5699 58.2354H15.9399L15.4796 60.0796C15.3041 60.7653 14.8265 62.516 16.4347 63.015V64.1383H12.9824V63.0266C13.6873 62.621 14.1102 61.2146 14.2713 60.6223" fill="#D9924E"/>
<path d="M30.9316 52.096C30.9316 53.7213 31.8838 54.7513 32.7843 54.7513C34.3723 54.7513 34.5104 52.096 34.5104 49.1898C34.5104 46.2836 34.4759 43.602 32.7843 43.602C31.8119 43.602 30.9143 44.7254 30.9143 46.7884L30.9316 52.096ZM27.416 63.0264C27.7526 62.9652 28.2791 62.5566 28.2791 61.2144V49.0205C28.2791 44.2089 30.2728 41.9622 32.6375 41.9622C35.5691 41.9622 37.4419 45.0522 37.4419 49.2365C37.4419 52.5483 36.4695 56.823 33.6099 56.823C32.885 56.823 31.8838 56.6362 30.9287 55.4487V61.2261C30.9287 62.0081 31.2451 62.9126 31.8637 63.0381V64.1615H27.416V63.0264Z" fill="#D9924E"/>
<path d="M50.0833 60.7477C48.2651 63.4643 46.818 64.4855 45.2099 64.4855C41.4699 64.4855 39.0332 59.4259 39.0332 53.0882C39.0332 46.4967 41.6224 41.939 44.8934 41.939C47.3646 41.939 46.2168 42.8143 48.0177 42.8143C48.1587 42.8143 48.3054 42.6597 48.4233 42.5021C48.4839 42.4392 48.5318 42.3648 48.5643 42.2833H49.1943V47.4363H48.5585C48.0982 45.2216 46.6886 43.5963 45.1696 43.5963C42.028 43.5963 41.9561 49.7472 41.9561 53.4646C41.9561 56.651 42.1345 62.2388 45.7507 62.2388C46.9878 62.2388 48.1702 61.4276 49.5281 59.5222L50.0833 60.7477Z" fill="#D9924E"/>
<path d="M55.9606 42.2891V43.4154C55.2731 43.6022 55.0976 44.3842 55.0976 45.1953V50.7714C56.933 50.8677 57.6033 48.4634 57.9227 47.057C58.4002 44.9648 58.8577 41.9361 60.9923 41.9361C61.3951 41.9238 61.7934 42.0248 62.143 42.2279V47.27H61.5073C61.3836 46.5522 61.047 46.2079 60.7305 46.2079C60.2357 46.2079 59.8674 46.9257 59.6373 47.4888C58.7886 49.3942 58.383 50.7685 57.1114 51.5184V51.7373C60.0055 52.3208 60.6212 54.9207 60.9779 57.1704C61.4008 59.9803 61.5073 62.6356 63.0953 62.8544V64.0712C62.6869 64.3619 62.1988 64.515 61.7 64.5089C58.7339 64.5089 58.6102 61.1066 58.0809 57.5059C57.8335 55.7902 57.2351 52.2304 55.0976 52.4492V61.2467C55.0976 62.0579 55.2759 62.8399 55.9606 63.0266V64.15H51.582V63.0266C52.2869 62.8399 52.4451 62.0579 52.4451 61.2467V45.1983C52.4451 44.3871 52.284 43.6051 51.582 43.4184V42.292L55.9606 42.2891Z" fill="#D9924E"/>
<path d="M66.455 53.2838C66.455 61.1621 67.7611 62.8399 69.7548 62.8399C71.7484 62.8399 73.0574 61.1534 73.0574 53.2838C73.0574 45.3208 71.7513 43.6022 69.7548 43.6022C67.7582 43.6022 66.455 45.3208 66.455 53.2838ZM75.9861 53.2838C75.9861 59.4347 73.3739 64.4943 69.7548 64.4943C66.1356 64.4943 63.5234 59.4347 63.5234 53.2838C63.5234 46.9432 66.1903 41.9478 69.7548 41.9478C73.3192 41.9478 75.9861 46.9432 75.9861 53.2838Z" fill="#D9924E"/>
<path d="M86.2204 42.289C86.7152 42.289 86.908 42.2277 87.0317 41.7288H87.4747V47.3194H86.839C86.4304 44.5708 85.6192 43.9464 83.9937 43.9464H81.0478V51.848H83.0098C83.8556 51.848 84.5432 51.5037 84.5259 49.8463H85.156V55.4691H84.5202C84.431 53.5958 83.6571 53.5025 83.355 53.5025H81.0535V62.4954H85.2912C86.5973 62.4954 87.7106 60.8731 87.9379 58.6234H88.5737V64.1499H77.4805V63.0265C78.3119 62.8689 78.4011 61.8097 78.4011 60.9664V45.4753C78.4011 44.5387 78.3119 43.602 77.4805 43.4153V42.289H86.2204Z" fill="#D9924E"/>
<path d="M176.081 60.7507C174.266 63.4672 172.816 64.4973 171.211 64.4973C167.471 64.4973 165.031 59.4376 165.031 53.097C165.031 46.5084 167.62 41.9507 170.891 41.9507C173.363 41.9507 172.215 42.8261 174.016 42.8261C174.157 42.8261 174.303 42.6714 174.421 42.5138C174.482 42.4516 174.531 42.3784 174.565 42.2979H175.201V47.4451H174.565C174.105 45.2304 172.692 43.6051 171.173 43.6051C168.032 43.6051 167.963 49.756 167.963 53.4734C167.963 56.6598 168.138 62.2476 171.757 62.2476C172.992 62.2476 174.177 61.4364 175.535 59.531L176.081 60.7507Z" fill="#D9924E"/>
<path d="M186.321 42.3095C186.816 42.3095 187.009 42.2453 187.132 41.7463H187.572V47.337H186.937C186.534 44.5883 185.72 43.9639 184.097 43.9639H181.148V51.8627H183.108C183.956 51.8627 184.644 51.5183 184.627 49.8639H185.271V55.4867H184.635C184.546 53.6134 183.772 53.52 183.484 53.52H181.183V62.513H185.418C186.727 62.513 187.837 60.8877 188.067 58.6409H188.703V64.1849H177.584V63.0265C178.413 62.8689 178.502 61.8098 178.502 60.9665V45.4783C178.502 44.5417 178.413 43.605 177.584 43.4183V42.3095H186.321Z" fill="#D9924E"/>
<path d="M197.835 42.3096L201.382 60.6252C201.649 61.9966 201.825 62.7786 202.495 63.0295V64.1558H199.213L196.048 47.7894H195.835C195.519 50.5993 194.67 56.7211 194.003 59.6886C193.085 63.6102 192.346 64.4856 191.252 64.4856C190.159 64.4856 189.73 63.1112 189.73 62.2038C189.73 61.1738 190.174 60.1758 190.881 60.1758C191.074 60.1932 191.258 60.2695 191.408 60.3947C191.658 60.5814 191.885 60.8324 192.133 60.8324C192.708 60.8324 193.071 59.6652 193.882 55.0228C194.216 53.1175 195.099 47.9032 195.099 45.5601C195.099 45.2479 195.081 43.4067 193.968 43.4067H193.68V42.3096H197.835Z" fill="#D9924E"/>
<path d="M206.396 53.2867C206.396 61.165 207.7 62.8428 209.696 62.8428C211.693 62.8428 212.999 61.1563 212.999 53.2867C212.999 45.3238 211.693 43.6051 209.696 43.6051C207.7 43.6051 206.396 45.3238 206.396 53.2867ZM215.927 53.2867C215.927 59.4376 213.315 64.4973 209.696 64.4973C206.077 64.4973 203.465 59.4376 203.465 53.2867C203.465 46.9461 206.132 41.9507 209.696 41.9507C213.261 41.9507 215.927 46.9461 215.927 53.2867Z" fill="#D9924E"/>
<path d="M124.39 42.2744H132.646V43.4766C131.277 49.5721 129.194 59.4024 128.509 64.1936H124.928C125.598 59.3733 127.428 50.7859 129.413 46.3711L126.395 46.3507C125.9 46.3507 125.06 46.3186 124.928 48.6675H123.438L124.39 42.2744Z" fill="#658FA3"/>
<path d="M143.556 42.2686V43.3949C142.5 43.6137 142.5 44.8363 142.5 45.4636V61.0014C142.5 61.6288 142.5 62.8514 143.556 63.0702V64.1936H138.193V63.0673C139.269 62.8806 139.269 61.5617 139.269 60.9985V45.4636C139.269 44.9005 139.269 43.5845 138.193 43.3949V42.2686H143.556Z" fill="#658FA3"/>
<path d="M152.601 48.6617V57.7393C152.601 59.9015 152.794 62.8748 154.563 62.8748C156.266 62.8748 156.522 60.2487 156.522 57.7393V48.6617C156.522 46.0619 156.266 43.5875 154.563 43.5875C152.86 43.5875 152.601 46.1232 152.601 48.6617ZM149.281 53.202C149.281 43.3395 152.558 41.9301 154.563 41.9301C156.568 41.9301 159.845 43.3395 159.845 53.202C159.845 63.187 156.502 64.5351 154.563 64.5351C152.624 64.5351 149.281 63.187 149.281 53.202Z" fill="#658FA3"/>
<path d="M124.39 42.2744H132.646V43.4766C131.277 49.5721 129.194 59.4024 128.509 64.1936H124.928C125.598 59.3733 127.428 50.7859 129.413 46.3711L126.395 46.3507C125.9 46.3507 125.06 46.3186 124.928 48.6675H123.438L124.39 42.2744Z" fill="#658FA3"/>
<path d="M143.556 42.2686V43.3949C142.5 43.6137 142.5 44.8363 142.5 45.4636V61.0014C142.5 61.6288 142.5 62.8514 143.556 63.0702V64.1936H138.193V63.0673C139.269 62.8806 139.269 61.5617 139.269 60.9985V45.4636C139.269 44.9005 139.269 43.5845 138.193 43.3949V42.2686H143.556Z" fill="#658FA3"/>
<path d="M152.601 48.6617V57.7393C152.601 59.9015 152.794 62.8748 154.563 62.8748C156.266 62.8748 156.522 60.2487 156.522 57.7393V48.6617C156.522 46.0619 156.266 43.5875 154.563 43.5875C152.86 43.5875 152.601 46.1232 152.601 48.6617ZM149.281 53.202C149.281 43.3395 152.558 41.9301 154.563 41.9301C156.568 41.9301 159.845 43.3395 159.845 53.202C159.845 63.187 156.502 64.5351 154.563 64.5351C152.624 64.5351 149.281 63.187 149.281 53.202Z" fill="#658FA3"/>
<path d="M115.686 60.9839V56.3999C114.626 56.5542 113.557 56.6235 112.487 56.6071L112.464 60.9839C112.464 61.55 112.464 62.866 111.385 63.0527V64.1936H116.75V63.0673C115.686 62.8455 115.686 61.6229 115.686 60.9839Z" fill="#658FA3"/>
<path d="M112.454 45.4696V53.7243C112.92 53.8468 113.746 53.9139 115.708 53.7243L115.685 45.4812C115.685 44.8539 115.685 43.6342 116.74 43.4154V42.2861H111.375V43.4154C112.454 43.5904 112.454 44.9064 112.454 45.4696Z" fill="#658FA3"/>
<path d="M115.686 60.9839V56.3999C114.626 56.5542 113.557 56.6235 112.487 56.6071L112.464 60.9839C112.464 61.55 112.464 62.866 111.385 63.0527V64.1936H116.75V63.0673C115.686 62.8455 115.686 61.6229 115.686 60.9839Z" fill="#658FA3"/>
<path d="M112.454 45.4696V53.7243C112.92 53.8468 113.746 53.9139 115.708 53.7243L115.685 45.4812C115.685 44.8539 115.685 43.6342 116.74 43.4154V42.2861H111.375V43.4154C112.454 43.5904 112.454 44.9064 112.454 45.4696Z" fill="#658FA3"/>
<path d="M123.13 42.2744H130.932V43.4766C129.712 49.2161 127.667 59.3762 127.02 64.1936H123.645C124.275 59.3733 127.414 50.7947 129.287 46.3945L125.029 46.3653C124.56 46.3653 123.766 46.3332 123.645 48.6821H122.871L123.13 42.2744Z" fill="#AED8D9"/>
<path d="M141.721 42.2745V43.4008C140.777 43.6196 140.777 44.8422 140.777 45.4666V60.984C140.777 61.6113 140.777 62.831 141.721 63.0499V64.1937H136.939V63.0674C137.903 62.8806 137.903 61.5646 137.903 61.0015V45.4666C137.903 44.9035 137.903 43.5875 136.939 43.4008V42.2745H141.721Z" fill="#AED8D9"/>
<path d="M151.149 48.6618V57.7393C151.149 59.9015 151.333 62.8748 153.001 62.8748C154.607 62.8748 154.851 60.2487 154.851 57.7393V48.6618C154.851 46.0619 154.607 43.5875 153.001 43.5875C151.396 43.5875 151.149 46.1232 151.149 48.6618ZM148.021 53.202C148.021 43.3395 151.108 41.9302 153.001 41.9302C154.894 41.9302 157.981 43.3395 157.981 53.202C157.981 63.187 154.831 64.5351 153.001 64.5351C151.172 64.5351 148.021 63.187 148.021 53.202Z" fill="#AED8D9"/>
<path d="M114.02 60.984L114.06 56.5459C113.096 56.6241 112.127 56.6055 111.166 56.4905V60.984C111.166 61.5501 111.166 62.8661 110.217 63.0528V64.1937H114.955V63.0674C114.02 62.8457 114.02 61.6231 114.02 60.984Z" fill="#AED8D9"/>
<path d="M111.162 45.4695L111.2 53.7651C112.141 53.8943 113.092 53.9227 114.039 53.8497L114.019 45.4695C114.019 44.8422 114.019 43.6225 114.951 43.4036V42.2744H110.213V43.4036C111.162 43.5904 111.162 44.9064 111.162 45.4695Z" fill="#AED8D9"/>
<path d="M95.0098 85.6606C107.078 98.4994 117.421 93.927 116.825 98.3126C116.789 98.7358 116.67 99.1474 116.475 99.5235C116.28 99.8997 116.014 100.233 115.692 100.504C115.812 95.4152 104.432 98.3126 95.0098 85.6606Z" fill="white"/>
<path d="M136.939 79.5243C136.754 79.0792 136.408 78.7224 135.973 78.5264C132.008 77.3592 132.172 83.9128 127.687 88.5027C122.768 93.536 115.915 93.8541 106.496 92.0392C111.741 93.9124 120.858 95.3335 126.942 91.0091C133.096 86.6294 132.889 78.255 136.939 79.5243Z" fill="white"/>
</svg>
