<svg width="110" height="16" viewBox="0 0 110 16" fill="none" xmlns="http://www.w3.org/2000/svg">
<g clip-path="url(#clip0_1901_14363)">
<path d="M0 0.287109V15.7427H2.25645V10.5982H5.66324C9.00367 10.5982 10.685 8.03699 10.685 5.4537C10.685 2.8704 9.00367 0.287109 5.66324 0.287109H0ZM2.25645 8.39026V2.53921H5.66324C7.54362 2.53921 8.47274 3.99645 8.47274 5.47577C8.47274 6.93302 7.54362 8.39026 5.66324 8.39026H2.25645Z" fill="#06111D"/>
<path d="M16.1225 8.96433L21.7637 15.7427H24.6616L19.7726 9.93578C22.4273 9.47215 23.7767 7.39668 23.7767 5.21082C23.7767 2.76001 22.0955 0.287109 18.7329 0.287109H13.0918V15.7427H15.304V2.53921H18.7329C20.6133 2.53921 21.5424 3.88606 21.5424 5.21082C21.5424 6.55767 20.6133 7.90452 18.7329 7.90452H16.1225V8.96433Z" fill="#06111D"/>
<path d="M39.1363 8.01483C39.1363 9.62663 38.4948 11.0397 37.4772 12.0554C36.4374 13.1151 34.9773 13.7555 33.4288 13.7555C31.8803 13.7555 30.4645 13.1151 29.4247 12.0554C28.385 11.0397 27.7435 9.60456 27.7435 8.01483C27.7435 6.42511 28.385 4.98995 29.4247 3.9743C30.4645 2.91448 31.8803 2.27418 33.4288 2.27418C34.9773 2.27418 36.4374 2.91448 37.4772 3.9743C38.4948 4.98995 39.1363 6.40304 39.1363 8.01483ZM25.4648 8.01483C25.4648 10.2228 26.3719 12.2099 27.7877 13.6672C29.2257 15.1465 31.2388 16.0297 33.4288 16.0297C35.641 16.0297 37.632 15.1465 39.0921 13.6672C40.5079 12.2099 41.4148 10.2228 41.4148 8.01483C41.4148 5.80689 40.5079 3.81975 39.0921 2.3625C37.632 0.905257 35.641 0 33.4288 0C31.2388 0 29.2257 0.905257 27.7877 2.3625C26.3719 3.81975 25.4648 5.80689 25.4648 8.01483Z" fill="#06111D"/>
<path d="M45.8965 9.14096H52.0906V7.06549H45.8965V2.4509H52.887V0.287109H43.6621V15.7427H45.8965V9.14096Z" fill="#06111D"/>
<path d="M54.1862 2.73498V13.6009H51.3104V15.7426H59.2964V13.6009H56.4206V2.4287H59.2964V0.309082H54.1888V2.73498H54.1862Z" fill="#06111D"/>
<path d="M67.8012 2.40673V15.7427H65.5668V2.40673H60.877V0.287109H72.4689V2.40673H67.8012Z" fill="#06111D"/>
<path d="M76.8848 0V16.0297H77.3898V0H76.8848ZM77.8031 8.22093L86.5724 16.0297H87.3759L78.2851 7.99193L87.1463 0H86.3428L77.8031 7.80874V8.22093Z" fill="#06111D"/>
<path d="M96.4068 0H89.1523V0.435091H92.5269V15.5717H89.1523V16.0297H96.4068V15.5717H93.009V0.435091H96.4068V0Z" fill="#06111D"/>
<path d="M104.491 16.0297V0.503789H110.001V0H98.5V0.503789H104.01V16.0297H104.491Z" fill="#06111D"/>
</g>
<defs>
<clipPath id="clip0_1901_14363">
<rect width="110" height="15.896" fill="white"/>
</clipPath>
</defs>
</svg>
